STARTFONT 2.3
FONT -FontForge-Bitstream Vera Sans Mono-Book-R-Normal-SansMono--16-150-75-75-P-99-FontSpecific-0
SIZE 15 75 75  8
FONTBOUNDINGBOX 11 18 -1 -4
COMMENT "Generated by fontforge, http://fontforge.sourceforge.net"
STARTPROPERTIES 29
FONT_NAME "BitstreamVeraSansMono-Roman"
FONT_ASCENT 12
FONT_DESCENT 4
UNDERLINE_POSITION -213
UNDERLINE_THICKNESS 141
QUAD_WIDTH 16
X_HEIGHT 12
CAP_HEIGHT 8
DEFAULT_CHAR -1
FONTNAME_REGISTRY ""
FAMILY_NAME "Bitstream Vera Sans Mono"
FOUNDRY "FontForge"
WEIGHT_NAME "Book"
SETWIDTH_NAME "Normal"
SLANT "R"
ADD_STYLE_NAME "SansMono-"
PIXEL_SIZE 16
POINT_SIZE 150
RESOLUTION_X 75
RESOLUTION_Y 75
RESOLUTION 75
SPACING "P"
AVERAGE_WIDTH 99
BITS_PER_PIXEL 8
CHARSET_REGISTRY "FontSpecific"
CHARSET_ENCODING "0"
CHARSET_COLLECTIONS "ASCII ISO8859-9 FontSpecific"
FULL_NAME "Bitstream Vera Sans Mono"
COPYRIGHT "Copyright (c) 2003 by Bitstream, Inc. All Rights Reserved."
ENDPROPERTIES
CHARS 269
STARTCHAR .null
ENCODING -1
SWIDTH 0 0
DWIDTH 0 0
BBX 1 1 0 0
BITMAP
00
ENDCHAR
STARTCHAR nonmarkingreturn
ENCODING -1
SWIDTH 602 0
DWIDTH 10 0
BBX 1 1 0 0
BITMAP
00
ENDCHAR
STARTCHAR space
ENCODING -1
SWIDTH 602 0
DWIDTH 10 0
BBX 1 1 0 0
BITMAP
00
ENDCHAR
STARTCHAR exclam
ENCODING -1
SWIDTH 602 0
DWIDTH 10 0
BBX 2 13 4 0
BITMAP
0403
F8A0
F8A0
F8A0
F8A0
F8A0
F49C
E68D
D67D
1A0F
100A
F8A0
F59E
ENDCHAR
STARTCHAR quotedbl
ENCODING -1
SWIDTH 602 0
DWIDTH 10 0
BBX 5 6 2 7
BITMAP
0204000204
5CFF005CFF
5CFF005CFF
5CFF005CFF
5CFF005CFF
2A74002A74
ENDCHAR
STARTCHAR numbersign
ENCODING -1
SWIDTH 602 0
DWIDTH 10 0
BBX 10 12 0 0
BITMAP
00000007D43400B55A00
0000003DFA0A13FF3000
0000007BC5004FF00300
0B8484D6CE84C1E38451
0FBCBFFFCBBCF8D6BC73
000031FE120CFC380000
00006FD10045F5050000
9294D6DA94C4EB946900
A6AAFFBDA8F2CDA87700
002DFF1509F93F000000
006CD50040F909000000
00A795007CC000000000
ENDCHAR
STARTCHAR dollar
ENCODING -1
SWIDTH 602 0
DWIDTH 10 0
BBX 8 16 1 -3
BITMAP
0000003232000000
0000006464000000
000C65BEBF793D00
10D8D4B0BEB6E600
6BFB135E68001400
7FF6065F68000000
3CFFB19368000000
005CE2FFF8BB3F00
00000175A4B4FD3E
000000646802E0A1
080000646801DBA2
81A74F808E8FFE43
32A1DCFBF8C84C00
000000646C000000
000000626C000000
000000282C000000
ENDCHAR
STARTCHAR percent
ENCODING -1
SWIDTH 602 0
DWIDTH 10 0
BBX 10 12 0 0
BITMAP
002D8069090000000000
37F4A4CDBF0200000000
9D810007E53600000000
A4760004E13A00000000
41F293BECB040553B60E
003A8E77297FD7962D00
000143ACCC68210E0000
1CD1A33A05A9FCFA7700
0314000065C40D2AF02F
0000000092790000BD5C
0000000060D8314BF325
00000000028FF3E35900
ENDCHAR
STARTCHAR ampersand
ENCODING -1
SWIDTH 602 0
DWIDTH 10 0
BBX 10 13 0 0
BITMAP
00000000020100000000
000039CEFEF5A1000000
0006E9BC404678000000
0021FF43000000000000
0008F57A000000000000
000099F2200000000000
0044F4E5C80500000402
13EE7829F6880000E75B
69F5070063FF4600EE48
86E7000001AAE937FE17
61FF31000010E0F7AA00
0AD4E0481136C5FF7C00
001399E8FBE08E85F734
ENDCHAR
STARTCHAR quotesingle
ENCODING -1
SWIDTH 602 0
DWIDTH 10 0
BBX 2 6 4 7
BITMAP
0402
E07C
E07C
E07C
E07C
6639
ENDCHAR
STARTCHAR parenleft
ENCODING -1
SWIDTH 602 0
DWIDTH 10 0
BBX 4 16 3 -3
BITMAP
00004065
0008E260
006BE906
01D69000
2BFF4800
6CFF1300
94F00000
A6E20000
A2E50000
87FA0300
56FF2800
12FB6500
00AFB700
003BFD21
0000B396
00000C1D
ENDCHAR
STARTCHAR parenright
ENCODING -1
SWIDTH 602 0
DWIDTH 10 0
BBX 5 16 2 -3
BITMAP
1382100000
01C38B0000
0050F71600
0005ED7800
0000A7CE00
000072FF10
00004FFF37
00003FFF4A
000043FF45
00005BFF2A
000085F405
0000C2B100
0018FD5400
0079DD0400
0BE8580000
0924010000
ENDCHAR
STARTCHAR asterisk
ENCODING -1
SWIDTH 602 0
DWIDTH 10 0
BBX 8 9 1 4
BITMAP
0000000302000000
000000A044000000
3E2B00A044015B0D
43D386AA6CBEA917
000575FFE3390000
025CD0D9C8B62C00
7BA416A0443FD423
040000A044000400
0000005022000000
ENDCHAR
STARTCHAR plus
ENCODING -1
SWIDTH 602 0
DWIDTH 10 0
BBX 9 10 0 0
BITMAP
000000005C33000000
00000000D878000000
00000000D878000000
00000000D878000000
45DCDCDCFBEDDCDCD2
2A848484EDBF84847E
00000000D878000000
00000000D878000000
00000000D878000000
00000000150C000000
ENDCHAR
STARTCHAR comma
ENCODING -1
SWIDTH 602 0
DWIDTH 10 0
BBX 3 6 3 -3
BITMAP
097064
14FFE4
27FFBF
65FF43
A5C301
412300
ENDCHAR
STARTCHAR hyphen
ENCODING -1
SWIDTH 602 0
DWIDTH 10 0
BBX 5 3 2 3
BITMAP
0A2C2C2C26
38FFFFFFDC
082424241F
ENDCHAR
STARTCHAR period
ENCODING -1
SWIDTH 602 0
DWIDTH 10 0
BBX 3 3 3 0
BITMAP
157860
2CFFCC
2CFCC9
ENDCHAR
STARTCHAR slash
ENCODING -1
SWIDTH 602 0
DWIDTH 10 0
BBX 9 15 0 -2
BITMAP
000000000000010402
00000000000049FF35
000000000000BDC000
000000000032FF4C00
0000000000A6D70200
000000001FFC640000
000000008EE8080000
00000010F37B000000
00000077F513000000
000006E59300000000
000060FD2300000000
0001D3AB0000000000
0048FF380000000000
00BDC3000000000000
0C8839000000000000
ENDCHAR
STARTCHAR zero
ENCODING -1
SWIDTH 602 0
DWIDTH 10 0
BBX 8 13 1 0
BITMAP
0000000101000000
002BC1FCF2980A00
0FE5D34D67F6A200
71FF2E00007FFF1F
B5DF00000031FF61
DAB90007020EFF86
EAAB19F1AB01FF95
E7AB1AECA001FF95
D7BA0000000FFF85
B1E000000033FF5F
6AFF30000081FE1C
0BE2D5506AF79D00
0027BAF6EB920800
ENDCHAR
STARTCHAR one
ENCODING -1
SWIDTH 602 0
DWIDTH 10 0
BBX 8 13 1 0
BITMAP
0000000204010000
098DC7FAFF200000
14EDB4BBFF200000
02020070FF200000
00000070FF200000
00000070FF200000
00000070FF200000
00000070FF200000
00000070FF200000
00000070FF200000
00000070FF200000
005660A6FF746035
00E1FCFCFCFCFC8A
ENDCHAR
STARTCHAR two
ENCODING -1
SWIDTH 602 0
DWIDTH 10 0
BBX 8 14 1 -1
BITMAP
0000010200000000
4BB9F2FFE3820600
B8C7765D9CFF9E00
2500000000AAFE12
000000000079FF28
0000000000A9F308
0000000036FD8200
00000017E0C40600
00000CCCDB140000
0006B8E823000000
02A6F12F00000000
8DFF6F323435370F
D4FFFFFFFFFFFF44
222828282828280B
ENDCHAR
STARTCHAR three
ENCODING -1
SWIDTH 602 0
DWIDTH 10 0
BBX 8 13 1 0
BITMAP
0000000200000000
58CAF4FFE78E0B00
7795615485FAAE00
00000000008CFF14
00000000007CFF19
000013184FEAB500
0000ECFFFFAA0700
000030396FF19C01
00000000005DFF37
00000000002DFF61
06000000006EFF45
DA94635D92FACC04
89CEF3FBE2921100
ENDCHAR
STARTCHAR four
ENCODING -1
SWIDTH 602 0
DWIDTH 10 0
BBX 9 13 0 0
BITMAP
000000000003040200
0000000005D2FF5000
0000000074EBFF5000
0000001EF06BFF5000
000000AF9240FF5000
00004DEC1140FF5000
000BE0680040FF5000
0088D0030040FF5000
1EFB6E303064FF712A
34FFFFFFFFFFFFFFE0
072020202058FF661C
000000000040FF5000
00000000003FFC4F00
ENDCHAR
STARTCHAR five
ENCODING -1
SWIDTH 602 0
DWIDTH 10 0
BBX 8 13 1 0
BITMAP
0204040404040300
60FFFFFFFFFF8800
60FF5F5454542D00
60FF100000000000
60FF100000000000
60FFE5F9DB790300
50956568B9FF9400
0000000001ABFD18
000000000052FF47
00000000004FFF48
0300000000A2FD18
C28A5C5DAAFF8D00
9AE7FBF9D46D0200
ENDCHAR
STARTCHAR six
ENCODING -1
SWIDTH 602 0
DWIDTH 10 0
BBX 8 13 1 0
BITMAP
0000000002000000
000D91E9FFEC8700
03C1F27E50688600
58FF400000000000
ACCB000000000000
DA986AD1D89E1C00
EDDDD4606AE2DE0B
EBFC1D00003EFF61
DDD200000004FE90
B9D000000003FD92
77FA18000038FF68
13ECCC5359DAE911
002EBBF5F3B72900
ENDCHAR
STARTCHAR seven
ENCODING -1
SWIDTH 602 0
DWIDTH 10 0
BBX 8 13 1 0
BITMAP
0404040404040402
E8FFFFFFFFFFFF6B
5058585858A5FF23
0000000000C6C300
0000000028FF6500
0000000089F81000
00000004E7A80000
0000004DFF490000
000000AEE8040000
000016FB8D000000
000072FF2F000000
0001D4D000000000
0034FC7100000000
ENDCHAR
STARTCHAR eight
ENCODING -1
SWIDTH 602 0
DWIDTH 10 0
BBX 8 13 1 0
BITMAP
0000000201000000
0063D8FEF8BB2D00
53FF962D3ED0EB0F
A4F20400004FFF4B
99F30300004CFF40
2FF5831426C6C804
0043EFFFFFCC1300
40F69C4257D7D30E
C8CD0100002FFF71
F1A400000004FF99
DACF0100002FFF7F
71FF9F4455D6F320
016DD5F9F1B73100
ENDCHAR
STARTCHAR nine
ENCODING -1
SWIDTH 602 0
DWIDTH 10 0
BBX 9 13 0 0
BITMAP
000000000200000000
000171E0FFEC8F0800
006BFF903E6AF59A00
00D8CA01000079FC15
02FE960000003CFF51
01FC9900000040FF73
00CED603000089FF81
0054FFB3648CDBFA80
00004EBAD6AB2DFF6C
0000000000003EFF3D
000000000002B3E404
00239E6264BBFF5300
0017C0F2F6C74A0000
ENDCHAR
STARTCHAR colon
ENCODING -1
SWIDTH 602 0
DWIDTH 10 0
BBX 3 9 3 0
BITMAP
1A9476
2CFFCC
26DCB0
000000
000000
000000
157860
2CFFCC
2CFCC9
ENDCHAR
STARTCHAR semicolon
ENCODING -1
SWIDTH 602 0
DWIDTH 10 0
BBX 3 12 3 -3
BITMAP
199073
2CFFCC
27E0B3
000000
000000
000000
097064
14FFE4
27FFBF
65FF43
A5C301
412300
ENDCHAR
STARTCHAR less
ENCODING -1
SWIDTH 602 0
DWIDTH 10 0
BBX 9 9 0 1
BITMAP
00000000000000000D
000000000000349CEA
0000000C64CDFFD56F
002D94F2F39C380100
49FFD6630C00000000
2ED5FDB35106000000
00013DA5F9EA8C2B00
000000001576DDFFC2
0000000000000246A3
ENDCHAR
STARTCHAR equal
ENCODING -1
SWIDTH 602 0
DWIDTH 10 0
BBX 9 6 0 2
BITMAP
277C7C7C7C7C7C7C77
46E0E0E0E0E0E0E0D6
000000000000000000
123838383838383836
50FFFFFFFFFFFFFFF4
0E2C2C2C2C2C2C2C2A
ENDCHAR
STARTCHAR greater
ENCODING -1
SWIDTH 602 0
DWIDTH 10 0
BBX 9 9 0 1
BITMAP
0C0200000000000000
50DE77160000000000
1B96F0FAA73E010000
0000095CC0FFD66E11
00000000002587F6ED
000000001874D7FDAA
00054EB0FCE4801C00
36E8FFB85004000000
408822000000000000
ENDCHAR
STARTCHAR question
ENCODING -1
SWIDTH 602 0
DWIDTH 10 0
BBX 8 14 1 -1
BITMAP
0000000101000000
0371D1FCF8B41E00
14F0895376F6C900
08170000008CFF11
0000000000A1F607
000000005FFF7700
00000052FD900100
000004EAAA010000
00001EFF5B000000
00001EF054000000
0000000000000000
00002BE45D000000
000030FF68000000
0000082811000000
ENDCHAR
STARTCHAR at
ENCODING -1
SWIDTH 602 0
DWIDTH 10 0
BBX 10 15 0 -3
BITMAP
0000000018351E000000
000031C4FFF4FFBA1300
0034F48B170020C8AE00
03D584000000002CFE12
47E9080047BEC85AF831
8C9C0037FB9062CCFE34
B27100A3AC00001DFF34
BF6200C677000000E834
B76C00B29500000CFA34
97930057F65528A2FF34
57E0030181F7FE9BE130
09E66E00000509000000
004AF865020000000000
000050EBDCA39DBF0500
0000000B57858D660900
ENDCHAR
STARTCHAR A
ENCODING -1
SWIDTH 602 0
DWIDTH 10 0
BBX 10 13 0 0
BITMAP
00000001040400000000
0000004CFFED03000000
00000098E9FF3B000000
000001E486E687000000
000030FF40A0D3000000
00007CF5075AFF200000
0000C8B60016FF6B0000
0017FE710000CFB70000
0060FF927070C6F80C00
00ACF7DCDCDCE1FF4F00
06F39800000006F39B00
44FF5300000000B1E602
8DFA11000000006AFC32
ENDCHAR
STARTCHAR B
ENCODING -1
SWIDTH 602 0
DWIDTH 10 0
BBX 8 13 1 0
BITMAP
0304040401000000
B4FFFFFFF7BF3900
B4EA4C4D60CEF51E
B4E100000036FF6A
B4E200000033FF6E
B4E71C1D30B6F825
B4FFFFFFFFEF4A00
B4EC444556B7F434
B4E300000005E4B3
B4E200000000BCDD
B4E100000004E1C8
B4EC5C5C6ABDFF5F
ACF4F4F4EBC05600
ENDCHAR
STARTCHAR C
ENCODING -1
SWIDTH 602 0
DWIDTH 10 0
BBX 8 13 1 0
BITMAP
0000000002010000
00026AD6FEF9C432
0090FF934954A763
35FF830000000008
92FF160000000000
C7E1000000000000
DDCC000000000000
DDCC000000000000
C6E2000000000000
92FF190000000000
35FF8A000000000C
0092FF9D545EB364
000269D2F8F2BD2F
ENDCHAR
STARTCHAR D
ENCODING -1
SWIDTH 602 0
DWIDTH 10 0
BBX 8 13 1 0
BITMAP
0404030000000000
ECFFFFF1BA460000
ECC75B75CCFF6700
ECA8000004BCF512
ECA80000004FFF5E
ECA800000020FF8D
ECA80000000DFFA1
ECA80000000DFFA0
ECA800000020FF8B
ECA800000050FF5B
ECA8000004BEF10F
ECC45976CEFE5D00
E5F8F7E7AF3E0000
ENDCHAR
STARTCHAR E
ENCODING -1
SWIDTH 602 0
DWIDTH 10 0
BBX 8 13 1 0
BITMAP
0204040404040402
74FFFFFFFFFFFF78
74FF6D585858582A
74FF200000000000
74FF200000000000
74FF351818181806
74FFFFFFFFFFFF3C
74FF5C4444444410
74FF200000000000
74FF200000000000
74FF200000000000
74FF74606060603B
73FCFCFCFCFCFC9A
ENDCHAR
STARTCHAR F
ENCODING -1
SWIDTH 602 0
DWIDTH 10 0
BBX 8 13 1 0
BITMAP
0104040404040403
2CFFFFFFFFFFFFB0
2CFF9D585858583D
2CFF680000000000
2CFF680000000000
2CFF791C1C1C1C06
2CFFFFFFFFFFFF34
2CFF8E404040400D
2CFF680000000000
2CFF680000000000
2CFF680000000000
2CFF680000000000
2CFC670000000000
ENDCHAR
STARTCHAR G
ENCODING -1
SWIDTH 602 0
DWIDTH 10 0
BBX 9 13 0 0
BITMAP
000000000002000000
00000F91E7FFEC9A11
000ACFEE724564D33C
007CFF3C0000000713
00DACC000000000000
0FFF98000000000000
25FF8400001F343421
25FF83000094FFFFA0
0FFF9700000C14E3A0
00DACB00000000E0A0
007DFF3E000000E0A0
000BD0F07C5379F89C
00001090E3FBE49212
ENDCHAR
STARTCHAR H
ENCODING -1
SWIDTH 602 0
DWIDTH 10 0
BBX 8 13 1 0
BITMAP
0403000000010403
ECA800000004FF90
ECA800000004FF90
ECA800000004FF90
ECA800000004FF90
ECB11818181CFF90
ECFFFFFFFFFFFF90
ECC044444447FF90
ECA800000004FF90
ECA800000004FF90
ECA800000004FF90
ECA800000004FF90
E9A600000004FC8E
ENDCHAR
STARTCHAR I
ENCODING -1
SWIDTH 602 0
DWIDTH 10 0
BBX 8 13 1 0
BITMAP
0204040404040401
6CFFFFFFFFFFFF0C
265858FEBF585805
000000FC9C000000
000000FC9C000000
000000FC9C000000
000000FC9C000000
000000FC9C000000
000000FC9C000000
000000FC9C000000
000000FC9C000000
296060FEC2606005
6BFCFCFCFCFCFC0C
ENDCHAR
STARTCHAR J
ENCODING -1
SWIDTH 602 0
DWIDTH 10 0
BBX 8 13 0 0
BITMAP
0000010404040402
00001CFFFFFFFF70
00000A54546DFF70
000000000024FF70
000000000024FF70
000000000024FF70
000000000024FF70
000000000024FF70
000000000025FF70
00000000002BFF6A
132700000053FF4C
23F7965B67DEED0C
0C8DD6F8F4C03600
ENDCHAR
STARTCHAR K
ENCODING -1
SWIDTH 602 0
DWIDTH 10 0
BBX 9 13 1 0
BITMAP
040300000000020402
ECA800000011D2DD19
ECA800000AC5E72300
ECA80006B7F02E0000
ECA802A6F63C000000
ECA994FE4A00000000
ECF4FFFF4F00000000
ECFF64CCE711000000
ECB30031FCA0000000
ECA800008AFF490000
ECA800000BDEE30F00
ECA800000046FF9A00
E9A600000000A2FC41
ENDCHAR
STARTCHAR L
ENCODING -1
SWIDTH 602 0
DWIDTH 10 0
BBX 8 13 1 0
BITMAP
0204020000000000
50FF440000000000
50FF440000000000
50FF440000000000
50FF440000000000
50FF440000000000
50FF440000000000
50FF440000000000
50FF440000000000
50FF440000000000
50FF440000000000
50FF8B6060606057
4FFCFCFCFCFCFCE5
ENDCHAR
STARTCHAR M
ENCODING -1
SWIDTH 602 0
DWIDTH 10 0
BBX 9 13 0 0
BITMAP
020404000000010404
54FFEE05000059FFF4
54FFF1480000AEF1F4
54FFA39C000CF6A3F4
54FF4EED0558CA84F4
54FF21D945AD7684F4
54FF2084A6F62284F4
54FF202FFFCD0084F4
54FF2001A25E0084F4
54FF200000000084F4
54FF200000000084F4
54FF200000000084F4
53FC200000000082F1
ENDCHAR
STARTCHAR N
ENCODING -1
SWIDTH 602 0
DWIDTH 10 0
BBX 8 13 1 0
BITMAP
0404010000000403
E8FF4C000000F88C
E8FFB2000000F88C
E8D8FD1C0000F88C
E89DD77E0000F88C
E89C71E20300F88C
E89C13F84B00F88C
E89C00A4B100F88C
E89C003EFD1BF88C
E89C0001D87DF88C
E89C000072E1FA8C
E89C000014F9FF8C
E59A000000A4FC8A
ENDCHAR
STARTCHAR O
ENCODING -1
SWIDTH 602 0
DWIDTH 10 0
BBX 9 13 0 0
BITMAP
000000000201000000
00003BCAFDF4A51300
0023F5C44D64EFC201
0093FA16000068FF3D
00D9C70000001DFF81
03FCA600000002FBA5
0EFF9A00000000EFB5
0BFF9A00000000EFB5
02FBA700000002FBA5
00D6C90000001EFF80
008EFB19000069FF3B
001EF3C9536AF1BE01
000038C4F7ED9E1100
ENDCHAR
STARTCHAR P
ENCODING -1
SWIDTH 602 0
DWIDTH 10 0
BBX 8 13 1 0
BITMAP
0204040401000000
70FFFFFFFCD26401
70FF665160C8FF62
70FF2100000CECC9
70FF22000000C1E5
70FF23000006E6CF
70FF513443B1FF76
70FFFFFFFFF28703
70FF43241E040000
70FF240000000000
70FF240000000000
70FF240000000000
6DF8230000000000
ENDCHAR
STARTCHAR Q
ENCODING -1
SWIDTH 602 0
DWIDTH 10 0
BBX 9 16 0 -3
BITMAP
000000000201000000
00003AC9FDF29E0E00
0022F4CA5875F8B100
0092FA1800007CFF2D
00D8C20000002FFF74
03FC9E0000000CFF9C
11FF8F00000001FDAF
13FF8D00000000FAB3
09FF9600000004FFA7
00ECAF0000001BFF8B
00B6E503000052FF55
0056FF720111CCEA0B
0001A0FFEBF7F44800
0000013C6FC5E52700
00000000000FCDD004
000000000000141500
ENDCHAR
STARTCHAR R
ENCODING -1
SWIDTH 602 0
DWIDTH 10 0
BBX 9 13 1 0
BITMAP
040404030000000000
E4FFFFFFE99C150000
E4D0545889FACB0200
E4B800000084FF3400
E4B800000058FF4D00
E4B80000008CFF2700
E4D97476A1FE8E0000
E4FBECF4FF96010000
E4B4000166FF620000
E4B4000000B3E60800
E4B400000039FF6B00
E4B400000000C3E206
E1B2000000004DFC61
ENDCHAR
STARTCHAR S
ENCODING -1
SWIDTH 602 0
DWIDTH 10 0
BBX 8 13 1 0
BITMAP
0000000201000000
0052CEFCFCD68500
51FFAA514E85D100
C3C8010000000800
DEAF000000000000
AEF9650E00000000
20D6FFFDCD7C0F00
0004488BCDFFDC12
000000000057FF75
000000000001F399
1E000000001EFE81
B8BE6E526DDBF524
51B6EAFCEDB43300
ENDCHAR
STARTCHAR T
ENCODING -1
SWIDTH 602 0
DWIDTH 10 0
BBX 10 13 0 0
BITMAP
03040404040404040402
A0FFFFFFFFFFFFFFFF44
37585858FBC158585818
00000000F8A000000000
00000000F8A000000000
00000000F8A000000000
00000000F8A000000000
00000000F8A000000000
00000000F8A000000000
00000000F8A000000000
00000000F8A000000000
00000000F8A000000000
00000000F59E00000000
ENDCHAR
STARTCHAR U
ENCODING -1
SWIDTH 602 0
DWIDTH 10 0
BBX 8 13 1 0
BITMAP
0403000000010402
E7B00000002CFF68
E5B00000002CFF68
E3B00000002CFF68
E1B00000002CFF68
DFB00000002CFF68
DCB00000002CFF68
DAB00000002CFF68
D8B00000002CFF67
CFB20000002FFF5E
B0D201000052FF3F
51FFA5566DE8D805
005BD1F9EEA71B00
ENDCHAR
STARTCHAR V
ENCODING -1
SWIDTH 602 0
DWIDTH 10 0
BBX 10 13 0 0
BITMAP
03040100000000020401
67FF360000000093FC0F
1FFF7700000000D5C200
00D6B900000018FF7900
008DF606000059FF3000
0045FF3D00009BE70200
0008F57E0000DE9F0000
0000B3C00020FF560000
00006BF90A62FD120000
000022FF44A4C5000000
000000D986E67C000000
00000091E7FF34000000
00000047FCE702000000
ENDCHAR
STARTCHAR W
ENCODING -1
SWIDTH 602 0
DWIDTH 10 0
BBX 10 13 0 0
BITMAP
04030000000000000403
EE9B000000000001F791
C8B8000000000015FF6B
A3D5000000000032FF46
7EF20111B884004FFF21
58FF1045FFE5006CF903
33FF2D7ABAFE1A8AD600
0EFF4AAF73D34FA7B100
00E867E43A9A85C48B00
00C39DFA0860BAE16600
009EECC90027EFFB4100
0078FF900001EDFF1B00
0052FC570000B2F20100
ENDCHAR
STARTCHAR X
ENCODING -1
SWIDTH 602 0
DWIDTH 10 0
BBX 10 13 0 0
BITMAP
02040200000000020401
17F0AB00000001C1E00B
006DFF3C000054FF4D00
0004D1CB0209E0AE0000
00003CFF5D7BF41D0000
000000A1E6F471000000
0000001EFFE604000000
0000007EFCFF44000000
000024F887AFD5050000
0001B9E30C27FC700000
0056FF54000094F11600
0EE6BB01000016F29D00
8DF7280000000079FB34
ENDCHAR
STARTCHAR Y
ENCODING -1
SWIDTH 602 0
DWIDTH 10 0
BBX 10 13 0 0
BITMAP
03040000000000020402
6AFF3F00000000A0F51A
05D7C80100002CFE7D00
004AFF520000B3E30A00
0001BBD7043CFF5B0000
00002EFD65C5CA020000
0000009AF6FF3B000000
00000018FFB600000000
00000000FC9C00000000
00000000FC9C00000000
00000000FC9C00000000
00000000FC9C00000000
00000000F99A00000000
ENDCHAR
STARTCHAR Z
ENCODING -1
SWIDTH 602 0
DWIDTH 10 0
BBX 9 13 1 0
BITMAP
030404040404040400
9CFFFFFFFFFFFFF800
365858585866FCC600
000000000094FA2A00
0000000038FE7D0000
00000005D2D2060000
00000078FD35000000
000024F78C00000000
0001BCDD0A00000000
005DFF420000000000
14EC9A000000000000
9BFD7060606060600E
C5FCFCFCFCFCFCFC24
ENDCHAR
STARTCHAR bracketleft
ENCODING -1
SWIDTH 602 0
DWIDTH 10 0
BBX 4 16 3 -3
BITMAP
3284847C
60FFAA9A
60FF1000
60FF1000
60FF1000
60FF1000
60FF1000
60FF1000
60FF1000
60FF1000
60FF1000
60FF1000
60FF1000
60FF1000
60FFF9E9
1230302D
ENDCHAR
STARTCHAR backslash
ENCODING -1
SWIDTH 602 0
DWIDTH 10 0
BBX 9 15 0 -2
BITMAP
010402000000000000
0CEE87000000000000
0084EF0D0000000000
0018F96F0000000000
00009CE00400000000
000029FF5800000000
000000B3CC01000000
0000003FFF40000000
00000001CAB4000000
0000000056FF2A0000
0000000004DF9C0000
00000000006DF91800
00000000000CEE8400
00000000000085EE0B
00000000000017882C
ENDCHAR
STARTCHAR bracketright
ENCODING -1
SWIDTH 602 0
DWIDTH 10 0
BBX 5 16 2 -3
BITMAP
2884848403
31A4CBFF04
00006CFF04
00006CFF04
00006CFF04
00006CFF04
00006CFF04
00006CFF04
00006CFF04
00006CFF04
00006CFF04
00006CFF04
00006CFF04
00006CFF04
4AF8FCFF04
0F30303001
ENDCHAR
STARTCHAR asciicircum
ENCODING -1
SWIDTH 602 0
DWIDTH 10 0
BBX 10 6 0 7
BITMAP
00000000040300000000
0000004CFFDC11000000
000025F0A7E3B6030000
000CD4B4042BEE830000
01ABC80B00003BF55000
1F781400000000406A01
ENDCHAR
STARTCHAR underscore
ENCODING -1
SWIDTH 602 0
DWIDTH 10 0
BBX 8 1 0 -4
BITMAP
A4A4A4A4A4A4A4A4
ENDCHAR
STARTCHAR grave
ENCODING -1
SWIDTH 602 0
DWIDTH 10 0
BBX 4 4 2 10
BITMAP
24270000
43F93E00
0069E312
00008A86
ENDCHAR
STARTCHAR a
ENCODING -1
SWIDTH 602 0
DWIDTH 10 0
BBX 8 9 1 0
BITMAP
1BA1DEF9ECAA1E00
3FB5644155D2DB05
01000000003EFF34
001967888C9DFF49
41F5D69D8FA1FF4C
C7BD03000039FF4D
E48B0000007CFF4E
A9E2300E59ECFF4F
13AAF3F6BF52FC4F
ENDCHAR
STARTCHAR b
ENCODING -1
SWIDTH 602 0
DWIDTH 10 0
BBX 8 13 1 0
BITMAP
274D000000000000
7CF4000000000000
7CF4000000000000
7CF4000000000000
7CF45DE1F6BD2800
7CFEDE5145CBE30B
7CFF4C000024FF60
7CFF0A000000E694
7CFA00000000D6A2
7CFF0B000000E592
7CFF4C000024FF5D
7CFDDC4F44C9E10A
5FBB5BE2F8BE2800
ENDCHAR
STARTCHAR c
ENCODING -1
SWIDTH 602 0
DWIDTH 10 0
BBX 8 9 1 0
BITMAP
000167CFF6EFB120
0086FE8B41479B4B
1AFC860000000004
58FF2B0000000000
6BFF160000000000
58FF2D0000000000
1AFC8A0000000003
0087FE8E4449994A
000168D1F8F1B321
ENDCHAR
STARTCHAR d
ENCODING -1
SWIDTH 602 0
DWIDTH 10 0
BBX 9 13 0 0
BITMAP
00000000000019500A
00000000000050FF20
0000000000004FFF20
0000000000004EFF20
00005EDBF8C372FF20
004AFF8C3A7EF8FF20
00BEC4010000AEFF20
01F5840000006BFF20
03FF750000005BFF20
00F1840000006BFF20
00BBC4010000ADFF20
0048FF8A397CF7FF20
000062DFF9C15FC419
ENDCHAR
STARTCHAR e
ENCODING -1
SWIDTH 602 0
DWIDTH 10 0
BBX 9 9 0 0
BITMAP
00002AB1F0F5B92A00
0027F1BE4742B6EA14
00A9E30900000AF175
00EFB945464647D8A6
03FFEAD4D4D4D4D496
01F08D000000000000
00AEDA070000000001
002AF2BF4E3759AB59
00002BAEEDFBE1A527
ENDCHAR
STARTCHAR f
ENCODING -1
SWIDTH 602 0
DWIDTH 10 0
BBX 8 13 1 0
BITMAP
000000075C828429
000000ABF8C1BC39
00000EFE6C000000
000020FF50000000
73FCFDFFFEFCFC53
132843FF6C28280E
000020FF50000000
000020FF50000000
000020FF50000000
000020FF50000000
000020FF50000000
000020FF50000000
000020FC4F000000
ENDCHAR
STARTCHAR g
ENCODING -1
SWIDTH 602 0
DWIDTH 10 0
BBX 8 13 1 -4
BITMAP
005EDCF8CC7AFC28
49FF741043F0FF28
BECA0000008BFF28
F39200000056FF28
FF860000004DFF28
ED9900000061FF28
B4DC040000A3FF28
3FFEA54378EEFF28
0058DDF9BF69FF24
000000000062FF0E
042C000005BFC800
08FFD8B7E1EF3400
01386A7B62140000
ENDCHAR
STARTCHAR h
ENCODING -1
SWIDTH 602 0
DWIDTH 10 0
BBX 8 13 1 0
BITMAP
3C82000000000000
74FC000000000000
74FC000000000000
74FC000000000000
74FC3ACFF9D33A00
74FECE5D55DCDF02
74FF4300005DFF24
74FF0600003EFF37
74FC0000003CFF38
74FC0000003CFF38
74FC0000003CFF38
74FC0000003CFF38
73F90000003CFC38
ENDCHAR
STARTCHAR i
ENCODING -1
SWIDTH 602 0
DWIDTH 10 0
BBX 8 13 1 0
BITMAP
000000635B000000
000000C0B0000000
0000004842000000
0000000000000000
00FCFCFCAE000000
002828CAB0000000
000000C0B0000000
000000C0B0000000
000000C0B0000000
000000C0B0000000
000000C0B0000000
192828CABD282816
9AFCFCFCFCFCFC86
ENDCHAR
STARTCHAR j
ENCODING -1
SWIDTH 602 0
DWIDTH 10 0
BBX 6 17 1 -4
BITMAP
0000002C840F
00000054FF1C
00000020600B
000000000000
00CDFCFCFC1C
00242C72FF1C
00000054FF1C
00000054FF1C
00000053FF1C
00000053FF1C
00000052FF1C
00000052FF1C
00000051FF1C
00000056FF18
00000095EF03
70CCD6FF7800
407472400000
ENDCHAR
STARTCHAR k
ENCODING -1
SWIDTH 602 0
DWIDTH 10 0
BBX 9 13 1 0
BITMAP
15842C000000000000
28FF54000000000000
28FF54000000000000
28FF54000000000000
28FF54000065F85D00
28FF540069FB5C0000
28FF546CFB57000000
28FFBBFF9E00000000
28FFF8AEFC37000000
28FF6905C9DC0D0000
28FF540026F59F0000
28FF54000067FF5500
28FC53000001B2EB1C
ENDCHAR
STARTCHAR l
ENCODING -1
SWIDTH 602 0
DWIDTH 10 0
BBX 8 13 1 0
BITMAP
759C9C9C00000000
698CBFFF00000000
000070FF00000000
000070FF00000000
000070FF00000000
000070FF00000000
000070FF00000000
000070FF00000000
000070FF00000000
000070FF01000000
000063FF16000000
000021FCA8464406
0000005BE3FCFC14
ENDCHAR
STARTCHAR m
ENCODING -1
SWIDTH 602 0
DWIDTH 10 0
BBX 9 9 0 0
BITMAP
1CFCAFF5D075EDE133
1CFF8126F9CC18BDA2
1CFF3C00D7900087C6
1CFF3100CE85007ED3
1CFF3000CC84007CD4
1CFF3000CC84007CD4
1CFF3000CC84007CD4
1CFF3000CC84007CD4
1CFC3000C982007BD1
ENDCHAR
STARTCHAR n
ENCODING -1
SWIDTH 602 0
DWIDTH 10 0
BBX 8 9 1 0
BITMAP
73F948D3F9D63E00
74FFC23129C7E303
74FF35000054FF27
74FF0300003DFF38
74FC0000003CFF38
74FC0000003CFF38
74FC0000003CFF38
74FC0000003CFF38
73F90000003CFC38
ENDCHAR
STARTCHAR o
ENCODING -1
SWIDTH 602 0
DWIDTH 10 0
BBX 8 9 1 0
BITMAP
0043C7F6EDA41700
32FBB13F55E3CF04
A5EB0900004BFF4A
DCAF00000009FF7F
EA9E00000000F78E
DAAF00000009FF80
A3EA0800004BFF4B
32FBB03E54E2D204
0047CAF8EEA71900
ENDCHAR
STARTCHAR p
ENCODING -1
SWIDTH 602 0
DWIDTH 10 0
BBX 8 13 1 -4
BITMAP
7EED6EE5F7BE2800
80FFCA241AB1E30C
80FF3C00001BFF60
80FF07000000E695
80F900000000DBA2
80FF0C000001EC91
80FF4F00002DFF5B
80FCE0574DD2DF0A
80F05CE2F8BD2600
80F0000000000000
80F0000000000000
80F0000000000000
3666000000000000
ENDCHAR
STARTCHAR q
ENCODING -1
SWIDTH 602 0
DWIDTH 10 0
BBX 8 13 1 -4
BITMAP
0045D2F8CA54C832
27F8B34879F2FF40
94EB0900009AFF40
CEAE00000055FF40
E29A0000003FFF40
DDA100000047FF40
B7CC00000073FF40
62FF4C0014DDFF40
03B4FFD7F4B5FF40
0002496E3F35FF40
000000000034FF40
000000000034FF40
000000000023AC2B
ENDCHAR
STARTCHAR r
ENCODING -1
SWIDTH 602 0
DWIDTH 10 0
BBX 8 9 2 0
BITMAP
20FC5690EAF7D006
20FFD8A039348807
20FFBD0100000000
20FF680000000000
20FF510000000000
20FF500000000000
20FF500000000000
20FF500000000000
20FC4F0000000000
ENDCHAR
STARTCHAR s
ENCODING -1
SWIDTH 602 0
DWIDTH 10 0
BBX 8 9 1 0
BITMAP
003FC5F5F7D25E00
14F5B1423B6B7400
41FF380000000000
1BFAC25620010000
0046C1F7FFDF4600
0000000440D5EB02
00000000006FFF0B
42A4573754DEC500
26B3E7FBEBA31800
ENDCHAR
STARTCHAR t
ENCODING -1
SWIDTH 602 0
DWIDTH 10 0
BBX 8 12 1 0
BITMAP
00005A7000000000
0000A4CC00000000
0000A4CC00000000
F5FCFFFFFCFCFC10
2728B3D528282803
0000A4CC00000000
0000A4CC00000000
0000A4CC00000000
0000A4CC00000000
00009FD500000000
000070FE68353403
00000BA3EEFCFC0C
ENDCHAR
STARTCHAR u
ENCODING -1
SWIDTH 602 0
DWIDTH 10 0
BBX 8 9 1 0
BITMAP
77F500000043FC30
78F800000044FF30
78F800000044FF30
78F800000044FF30
78F800000044FF30
77F90000004BFF30
67FF0E00007AFF30
27FE901B46E3FF30
006CE9F7B963FC30
ENDCHAR
STARTCHAR v
ENCODING -1
SWIDTH 602 0
DWIDTH 10 0
BBX 9 9 0 0
BITMAP
12F77100000000CCAE
00B5C700000026FF58
005CFF1F00007CF50B
000EF7730000D2A700
0000ABC90029FF4E00
000052FF2080EF0700
000008F276D69C0000
000000A1E7FF440000
00000047FCE5040000
ENDCHAR
STARTCHAR w
ENCODING -1
SWIDTH 602 0
DWIDTH 10 0
BBX 10 9 0 0
BITMAP
E085000000000000E085
AABC000000000019FF4D
70F102004E2C004FFF14
35FF280EFBA80085D800
05F65E4EC4EA03BB9E00
00C0949368C836F06300
0086CAD8207FA1FF2900
004BFCD70035FCED0200
0012FB8E0002E7B20000
ENDCHAR
STARTCHAR x
ENCODING -1
SWIDTH 602 0
DWIDTH 10 0
BBX 10 9 0 0
BITMAP
02B9CF0800003CFA5F00
001AEB8E0010E0A80100
00004CFE46A5DF0F0000
00000090F4FC38000000
0000002FFFD003000000
000008D1C8F67B000000
000095ED1B66FC3C0000
0052FF520001B0E21200
1DEB9B00000014E3AC01
ENDCHAR
STARTCHAR y
ENCODING -1
SWIDTH 602 0
DWIDTH 10 0
BBX 10 13 0 -4
BITMAP
0CF18400000000B0D101
009FE202000014FB7400
003DFF4200006BFC1800
0001DBA10000C8B20000
000079F40C25FF510000
00001BFD5E81EB060000
000000B5BDDD90000000
00000053FFFF30000000
00000006EDD100000000
00000012F87100000000
00000084F91500000000
0072D9FF820000000000
003C6C42010000000000
ENDCHAR
STARTCHAR z
ENCODING -1
SWIDTH 602 0
DWIDTH 10 0
BBX 8 9 1 0
BITMAP
38FCFCFCFCFCFC20
0B30303031C4E90F
000000006BFC4000
00000038FA740000
000016E4AC010000
0004BED80E000000
0088F42900000000
43FF8B3838383807
67FCFCFCFCFCFC20
ENDCHAR
STARTCHAR braceleft
ENCODING -1
SWIDTH 602 0
DWIDTH 10 0
BBX 7 16 1 -3
BITMAP
000000013A6C6B
00000074FFCA9E
000000CABD0000
000000DC9D0000
000000DC9C0000
000000DF9C0000
00000AF7860000
1F79C2EA290000
30BAF0BE140000
000020FE7D0000
000000E59E0000
000000E0A00000
000000E0A00000
000000D6B10000
0000009AFA926D
0000000E7BAAA1
ENDCHAR
STARTCHAR bar
ENCODING -1
SWIDTH 602 0
DWIDTH 10 0
BBX 2 17 4 -4
BITMAP
834A
DC7C
DC7C
DC7C
DC7C
DC7C
DC7C
DC7C
DC7C
DC7C
DC7C
DC7C
DC7C
DC7C
DC7C
DC7C
C46F
ENDCHAR
STARTCHAR braceright
ENCODING -1
SWIDTH 602 0
DWIDTH 10 0
BBX 7 16 1 -3
BITMAP
217A631C000000
2EB0E3F41E0000
00001DFF650000
000001FE780000
000000FC780000
000000FC7A0000
000000E79D0000
00000072F8996C
0000004EE9D29E
000000E0B40100
000000FF7C0000
000000FF780000
000001FF780000
000014FF6D0000
217FC0FF300000
2FAF9948000000
ENDCHAR
STARTCHAR asciitilde
ENCODING -1
SWIDTH 602 0
DWIDTH 10 0
BBX 9 4 0 3
BITMAP
0002313D0C0000000D
1DD5FFFFF5985870D3
3D86292570D4FFED75
0100000000000C0200
ENDCHAR
STARTCHAR nonbreakingspace
ENCODING -1
SWIDTH 602 0
DWIDTH 10 0
BBX 1 1 0 0
BITMAP
00
ENDCHAR
STARTCHAR exclamdown
ENCODING -1
SWIDTH 602 0
DWIDTH 10 0
BBX 2 13 4 0
BITMAP
0403
F8A0
F8A0
0805
2113
D77E
E68D
F59D
F8A0
F8A0
F8A0
F8A0
F59E
ENDCHAR
STARTCHAR cent
ENCODING -1
SWIDTH 602 0
DWIDTH 10 0
BBX 8 15 1 -3
BITMAP
0000000029160000
0000000088480000
0000000088480000
000164D9FDF8CC2F
006BFF7599605732
08EF9D00884C0000
38FF4A00884C0000
4BFF3600884C0000
36FF5000884C0000
06EAAF00884C0000
005BFF98A9757A3B
00004FC9FBF9C52A
0000000084480000
0000000084480000
0000000026150000
ENDCHAR
STARTCHAR sterling
ENCODING -1
SWIDTH 602 0
DWIDTH 10 0
BBX 8 13 1 0
BITMAP
0000000000020000
0000068FECFFE35C
000085FF83396062
0000E3C300000000
0005FF9000000000
0008FF8800000000
1A33FF9D2C2C1400
90F9FFFDF8F86D00
0008FF8800000000
0008FF8800000000
0008FF8800000000
5162FFB45C5C5C44
DDFCFCFCFCFCFCBA
ENDCHAR
STARTCHAR currency
ENCODING -1
SWIDTH 602 0
DWIDTH 10 0
BBX 8 8 1 1
BITMAP
1079020000005933
13D1A8C5D499EB31
003AEC4B36CB7B00
007B86000047B700
006E9C00005FA600
004FFE9582F08900
24EC5E7A8446E553
023000000000230A
ENDCHAR
STARTCHAR yen
ENCODING -1
SWIDTH 602 0
DWIDTH 10 0
BBX 10 13 0 0
BITMAP
03040000000000020402
6CFF3F00000000A0F419
05DAC80100002CFE7A00
0050FF520000B3E00900
0001C2D7043CFF560000
0C80ACFF65C5F4815E00
0A6464B4F6FF76644A00
03202039FFC220201800
13C4C4C4FFE9C4C49000
00000000FC9C00000000
00000000FC9C00000000
00000000FC9C00000000
00000000F99A00000000
ENDCHAR
STARTCHAR brokenbar
ENCODING -1
SWIDTH 602 0
DWIDTH 10 0
BBX 2 15 4 -3
BITMAP
7542
DC7C
DC7C
DC7C
DC7C
DC7C
8048
0000
3E23
DC7C
DC7C
DC7C
DC7C
DC7C
B365
ENDCHAR
STARTCHAR section
ENCODING -1
SWIDTH 602 0
DWIDTH 10 0
BBX 8 15 1 -2
BITMAP
0000000202000000
0024BFFBFEDA3500
00C2D53427693400
00E29D0000000000
0085FD7504000000
0195DCF6CF360000
47F0131EB4FC6000
67E40300019BF508
21F5A20B0047FF0F
0036DCDF58C1A900
00000980FAEA0E00
0000000043FE7200
0003000003ED8B00
00B99F7BB9FB3500
004A92AB96340000
ENDCHAR
STARTCHAR dieresis
ENCODING -1
SWIDTH 602 0
DWIDTH 10 0
BBX 6 3 2 10
BITMAP
40800A388012
80FF1470FF24
1020030E2005
ENDCHAR
STARTCHAR copyright
ENCODING -1
SWIDTH 602 0
DWIDTH 10 0
BBX 10 10 0 1
BITMAP
00004DBDD5D6A2250000
0080AD21000243CD3C00
45AF12A3D5CD931AD00C
B524AA90020013007563
D101F81E000000003797
D101FA1C000000003798
B526B187010009007464
45B117AED6C9971BD10D
007FB022000243D03D00
00004BBBD2D2A0240000
ENDCHAR
STARTCHAR ordfeminine
ENCODING -1
SWIDTH 602 0
DWIDTH 10 0
BBX 6 10 2 3
BITMAP
000002010000
3CDBEFEF8B01
211B001EE545
055E9298E073
98C9624EC576
DC500004DA74
A4CD6EB5E972
0B728B3F4930
6B949494944A
4B6868686834
ENDCHAR
STARTCHAR guillemotleft
ENCODING -1
SWIDTH 602 0
DWIDTH 10 0
BBX 9 8 0 1
BITMAP
000000002800001711
00000186980020DB24
000399E62C2BE59B03
03AADB2134EE870100
09E5A10362F73A0000
0020DBAB0770F44800
000017CE89005DF61B
0000000E5A00004B1D
ENDCHAR
STARTCHAR logicalnot
ENCODING -1
SWIDTH 602 0
DWIDTH 10 0
BBX 9 5 0 2
BITMAP
4BF0F0F0F0F0F0F0E5
25747474747474A7F4
000000000000005CF4
000000000000005CF4
000000000000000204
ENDCHAR
STARTCHAR sfthyphen
ENCODING -1
SWIDTH 602 0
DWIDTH 10 0
BBX 5 3 2 3
BITMAP
0A2C2C2C26
38FFFFFFDC
082424241F
ENDCHAR
STARTCHAR registered
ENCODING -1
SWIDTH 602 0
DWIDTH 10 0
BBX 10 10 0 1
BITMAP
00004EBBD5D4961C0000
0087A92100054DCF3100
4DA727D6B4B34D22CC07
BD1B2CD40031E9008255
D1002CE24D8CB800438B
D1002CE669E71F00428D
C01A2CD8006EB3007F5A
52A4219F0004A445D009
0190A51B000145D13700
000159C4D5D6A2220000
ENDCHAR
STARTCHAR macron
ENCODING -1
SWIDTH 602 0
DWIDTH 10 0
BBX 6 2 2 11
BITMAP
26484848480C
78E8E8E8E825
ENDCHAR
STARTCHAR degree
ENCODING -1
SWIDTH 602 0
DWIDTH 10 0
BBX 6 7 2 6
BITMAP
000002010000
059AFAEA5A00
6DC71537ED1D
A06B0000B44C
73BE0B26E921
08AEFBF36500
00000D060000
ENDCHAR
STARTCHAR plusminus
ENCODING -1
SWIDTH 602 0
DWIDTH 10 0
BBX 9 10 0 0
BITMAP
000000005F35000000
00000000D878000000
00000000D878000000
40CCCCCCF8E5CCCCC3
2F949494F0C794948E
00000000D878000000
00000000D878000000
00000000361E000000
206464646464646460
4FFCFCFCFCFCFCFCF1
ENDCHAR
STARTCHAR twosuperior
ENCODING -1
SWIDTH 602 0
DWIDTH 10 0
BBX 5 8 2 5
BITMAP
0000020000
45D8DFDB43
210C006FDA
0000006EC7
00002FE22D
002DDC3800
2AE4561E1F
61C8C8C8C2
ENDCHAR
STARTCHAR threesuperior
ENCODING -1
SWIDTH 602 0
DWIDTH 10 0
BBX 6 8 2 5
BITMAP
000002000000
2EDCE0E66A00
0C090046FC06
000A378DC401
0020ACDC7100
00000016FF24
1F11014EFD1A
4DDBE7D15900
ENDCHAR
STARTCHAR acute
ENCODING -1
SWIDTH 602 0
DWIDTH 10 0
BBX 5 4 3 10
BITMAP
0000083012
000098D40E
0051EB2100
0FC53C0000
ENDCHAR
STARTCHAR mu
ENCODING -1
SWIDTH 602 0
DWIDTH 10 0
BBX 9 13 1 -4
BITMAP
7EED00000043FC2C00
80F000000044FF2C00
7FF000000044FF2C00
7FF000000044FF2C00
7EF000000044FF2C00
7DF20000004AFF2C00
7DFF1A00007FFF2D00
7CFDC1516FEFFF8B14
7BD58CF4E655BEE91C
7BD400000000000000
7AD400000000000000
79D400000000000000
335A00000000000000
ENDCHAR
STARTCHAR paragraph
ENCODING -1
SWIDTH 602 0
DWIDTH 10 0
BBX 9 15 0 -2
BITMAP
000000000304040401
000787E6FFF8F1FF0C
00A0FFFFFF7410FF0C
11FEFFFFFF7410FF0C
26FFFFFFFF7410FF0C
09F4FFFFFF7410FF0C
006DFFFFFF7410FF0C
00003E9AE87410FF0C
00000000A87410FF0C
00000000A87410FF0C
00000000A87410FF0C
00000000A87410FF0C
00000000A87410FF0C
00000000A87410FF0C
000000005C40098C07
ENDCHAR
STARTCHAR periodcentered
ENCODING -1
SWIDTH 602 0
DWIDTH 10 0
BBX 3 3 3 4
BITMAP
2AF4C3
2CFFCC
168066
ENDCHAR
STARTCHAR cedilla
ENCODING -1
SWIDTH 602 0
DWIDTH 10 0
BBX 4 5 3 -4
BITMAP
00020200
0026D107
0301D849
D4E2EC21
0D220700
ENDCHAR
STARTCHAR onesuperior
ENCODING -1
SWIDTH 602 0
DWIDTH 10 0
BBX 6 8 2 5
BITMAP
000003030000
3BD8F7900000
111690900000
000090900000
000090900000
000090900000
082CA4A42C07
1FB4B4B4B41D
ENDCHAR
STARTCHAR ordmasculine
ENCODING -1
SWIDTH 602 0
DWIDTH 10 0
BBX 7 10 1 3
BITMAP
00000002010000
0017B5F2EB7C01
00B1A40520EA53
07FC34000096A4
11FF23000085B4
01E9510000B58B
0068E36A8EEC1F
0000438A7C1D00
00748C8C8C8C40
005D7070707033
ENDCHAR
STARTCHAR guillemotright
ENCODING -1
SWIDTH 602 0
DWIDTH 10 0
BBX 8 8 1 1
BITMAP
2701000028000000
7C9E0400E13E0000
1ED9AF086CF54D00
0015CCBF0B5AF65A
000188F01A1DDF95
0294E82F28E39E04
6EDD2300E28B0100
4F18000067000000
ENDCHAR
STARTCHAR onequarter
ENCODING -1
SWIDTH 602 0
DWIDTH 10 0
BBX 9 17 0 -3
BITMAP
073158330000000000
49BDD68C0000000000
0000948C0000000000
0000948C0000000000
0000948C0000000000
0000948C0000000000
1984CCC88413000001
125C5C5C665186C78C
084081C2DFA5642301
99AA69280100725A00
000000000054E8A400
0000000015C579A400
00000000AA4070A400
0000004EBF3890B91F
00000051ACACD1E25F
00000000000070A400
000000000000141D00
ENDCHAR
STARTCHAR onehalf
ENCODING -1
SWIDTH 602 0
DWIDTH 10 0
BBX 9 17 0 -3
BITMAP
073158330000000000
49BDD68C0000000000
0000948C0000000000
0000948C0000000000
0000948C0000000000
0000948C0000000000
1984CCC88413000001
125C5C5C665186C78C
084081C2DFA5642301
99AA692850999A4C00
000000007D4657F049
00000000000000C270
00000000000043E316
000000000038DE2E00
0000000038DD2F0000
00000000E3DEC1C36B
000000002528282816
ENDCHAR
STARTCHAR threequarters
ENCODING -1
SWIDTH 602 0
DWIDTH 10 0
BBX 9 17 0 -3
BITMAP
004C6F651A00000000
00A1729BEE17000000
00000004F33A000000
0000A4D29402000000
00003865EA29000000
00000000D06B000000
28926898F227000000
0B5D7B69213C7EBF8C
053879BAE2AD6C2B01
9CB2712F02006A5500
00000000004FEAA400
0000000013C67BA400
00000000A54570A400
0000004BBE308BB61B
00000055B4B4D6E563
00000000000070A400
000000000000172200
ENDCHAR
STARTCHAR questiondown
ENCODING -1
SWIDTH 602 0
DWIDTH 10 0
BBX 7 13 1 0
BITMAP
00000003040000
000000C0D40000
000000C0D40000
00000000000000
00000098A70000
000000B9C60000
000013EC9A0000
0011CCE41C0000
05C4E726000000
55FF4900000000
68FF320000001E
24FAD25F5FAFBB
0049CFF9EDAF3B
ENDCHAR
STARTCHAR Agrave
ENCODING -1
SWIDTH 602 0
DWIDTH 10 0
BBX 10 16 0 0
BITMAP
00000143240000000000
00000067E31200000000
00000000898600000000
00000001040400000000
0000004CFFED03000000
00000098E9FF3B000000
000001E486E687000000
000030FF40A0D3000000
00007CF5075AFF200000
0000C8B60016FF6B0000
0017FE710000CFB70000
0060FF927070C6F80C00
00ACF7DCDCDCE1FF4F00
06F39800000006F39B00
44FF5300000000B1E602
8DFA11000000006AFC32
ENDCHAR
STARTCHAR Aacute
ENCODING -1
SWIDTH 602 0
DWIDTH 10 0
BBX 10 16 0 0
BITMAP
00000000003E2B000000
0000000051EB22000000
0000000FC53D00000000
00000001040400000000
0000004CFFED03000000
00000098E9FF3B000000
000001E486E687000000
000030FF40A0D3000000
00007CF5075AFF200000
0000C8B60016FF6B0000
0017FE710000CFB70000
0060FF927070C6F80C00
00ACF7DCDCDCE1FF4F00
06F39800000006F39B00
44FF5300000000B1E602
8DFA11000000006AFC32
ENDCHAR
STARTCHAR Acircumflex
ENCODING -1
SWIDTH 602 0
DWIDTH 10 0
BBX 10 16 0 0
BITMAP
000000044B3400000000
00000089C1E834000000
000035B80C3DB6070000
00000001040400000000
0000004CFFED03000000
00000098E9FF3B000000
000001E486E687000000
000030FF40A0D3000000
00007CF5075AFF200000
0000C8B60016FF6B0000
0017FE710000CFB70000
0060FF927070C6F80C00
00ACF7DCDCDCE1FF4F00
06F39800000006F39B00
44FF5300000000B1E602
8DFA11000000006AFC32
ENDCHAR
STARTCHAR Atilde
ENCODING -1
SWIDTH 602 0
DWIDTH 10 0
BBX 10 16 0 0
BITMAP
0000001C0C001B110000
000066E8E884D7410000
0000692E1C8168010000
00000001040400000000
0000004CFFED03000000
00000098E9FF3B000000
000001E486E687000000
000030FF40A0D3000000
00007CF5075AFF200000
0000C8B60016FF6B0000
0017FE710000CFB70000
0060FF927070C6F80C00
00ACF7DCDCDCE1FF4F00
06F39800000006F39B00
44FF5300000000B1E602
8DFA11000000006AFC32
ENDCHAR
STARTCHAR Adieresis
ENCODING -1
SWIDTH 602 0
DWIDTH 10 0
BBX 10 16 0 0
BITMAP
0000060C01060C020000
000080FF1470FF240000
00004A940C4194150000
00000001040400000000
0000004CFFED03000000
00000098E9FF3B000000
000001E486E687000000
000030FF40A0D3000000
00007CF5075AFF200000
0000C8B60016FF6B0000
0017FE710000CFB70000
0060FF927070C6F80C00
00ACF7DCDCDCE1FF4F00
06F39800000006F39B00
44FF5300000000B1E602
8DFA11000000006AFC32
ENDCHAR
STARTCHAR Aring
ENCODING -1
SWIDTH 602 0
DWIDTH 10 0
BBX 10 16 0 0
BITMAP
000000043D2800000000
000004C2C8E06B000000
00003FC6011AE6000000
000037D60933DC000000
000001AAF2FB4E000000
00000098EAFF3B000000
000001E487E687000000
000030FF41A0D3000000
00007CF5075AFF200000
0000C8B60016FF6B0000
0017FE700000CEB70000
0060FF947474C7F80C00
00ACF7DCDCDCE1FF4F00
06F39800000006F39B00
44FF5300000000B1E602
8DFA11000000006AFC32
ENDCHAR
STARTCHAR AE
ENCODING -1
SWIDTH 602 0
DWIDTH 10 0
BBX 10 13 0 0
BITMAP
00000004040404040401
000003EEFFFFFFFFFF14
000034FF65FFA2585807
000079D904FF70000000
0000BD9804FF70000000
0009F85704FF7E181400
0046FF1704FFFFFFD400
008AD50004FF97443900
00CECC7073FF70000000
15FFEEE8E9FF70000000
57FF160004FF70000000
9BD2000004FFA6606015
DC8F000004FCFCFCFC38
ENDCHAR
STARTCHAR Ccedilla
ENCODING -1
SWIDTH 602 0
DWIDTH 10 0
BBX 8 17 1 -4
BITMAP
0000000002010000
00026AD6FEF9C432
0090FF934954A863
35FF830000000008
92FF160000000000
C7E1000000000000
DDCC000000000000
DDCC000000000000
C6E2000000000000
92FF190000000000
35FF8A000000000C
0092FF9D545EB364
000269D2FBF4BD2F
0000000059A50000
0000020110FF1200
00001CE8EBD10400
0000001520020000
ENDCHAR
STARTCHAR Egrave
ENCODING -1
SWIDTH 602 0
DWIDTH 10 0
BBX 8 16 1 0
BITMAP
0000392E00000000
000047F025000000
0000006BA3010000
0204040404040402
74FFFFFFFFFFFF78
74FF6D585858582A
74FF200000000000
74FF200000000000
74FF351818181806
74FFFFFFFFFFFF3C
74FF5C4444444410
74FF200000000000
74FF200000000000
74FF200000000000
74FF74606060603B
73FCFCFCFCFCFC9A
ENDCHAR
STARTCHAR Eacute
ENCODING -1
SWIDTH 602 0
DWIDTH 10 0
BBX 8 16 1 0
BITMAP
0000000034350000
00000033F2390000
000004B25A000000
0204040404040402
74FFFFFFFFFFFF78
74FF6D585858582A
74FF200000000000
74FF200000000000
74FF351818181806
74FFFFFFFFFFFF3C
74FF5C4444444410
74FF200000000000
74FF200000000000
74FF200000000000
74FF74606060603B
73FCFCFCFCFCFC9A
ENDCHAR
STARTCHAR Ecircumflex
ENCODING -1
SWIDTH 602 0
DWIDTH 10 0
BBX 8 16 1 0
BITMAP
000001453F000000
000065D1DE510000
001EC11A26C01400
0204040404040402
74FFFFFFFFFFFF78
74FF6D585858582A
74FF200000000000
74FF200000000000
74FF351818181806
74FFFFFFFFFFFF3C
74FF5C4444444410
74FF200000000000
74FF200000000000
74FF200000000000
74FF74606060603B
73FCFCFCFCFCFC9A
ENDCHAR
STARTCHAR Edieresis
ENCODING -1
SWIDTH 602 0
DWIDTH 10 0
BBX 8 16 1 0
BITMAP
00050C03040C0400
005CFF384CFF4800
003694212C942A00
0204040404040402
74FFFFFFFFFFFF78
74FF6D585858582A
74FF200000000000
74FF200000000000
74FF351818181806
74FFFFFFFFFFFF3C
74FF5C4444444410
74FF200000000000
74FF200000000000
74FF200000000000
74FF74606060603B
73FCFCFCFCFCFC9A
ENDCHAR
STARTCHAR Igrave
ENCODING -1
SWIDTH 602 0
DWIDTH 10 0
BBX 8 16 1 0
BITMAP
0001432400000000
000067E312000000
0000008986000000
0204040404040401
6CFFFFFFFFFFFF0C
265858FEBF585805
000000FC9C000000
000000FC9C000000
000000FC9C000000
000000FC9C000000
000000FC9C000000
000000FC9C000000
000000FC9C000000
000000FC9C000000
296060FEC2606005
6BFCFCFCFCFCFC0C
ENDCHAR
STARTCHAR Iacute
ENCODING -1
SWIDTH 602 0
DWIDTH 10 0
BBX 8 16 1 0
BITMAP
000000003E2B0000
00000051EB220000
00000FC53D000000
0204040404040401
6CFFFFFFFFFFFF0C
265858FEBF585805
000000FC9C000000
000000FC9C000000
000000FC9C000000
000000FC9C000000
000000FC9C000000
000000FC9C000000
000000FC9C000000
000000FC9C000000
296060FEC2606005
6BFCFCFCFCFCFC0C
ENDCHAR
STARTCHAR Icircumflex
ENCODING -1
SWIDTH 602 0
DWIDTH 10 0
BBX 8 16 1 0
BITMAP
0000044B34000000
000089C1E8340000
0035B80C3DB60700
0204040404040401
6CFFFFFFFFFFFF0C
265858FEBF585805
000000FC9C000000
000000FC9C000000
000000FC9C000000
000000FC9C000000
000000FC9C000000
000000FC9C000000
000000FC9C000000
000000FC9C000000
296060FEC2606005
6BFCFCFCFCFCFC0C
ENDCHAR
STARTCHAR Idieresis
ENCODING -1
SWIDTH 602 0
DWIDTH 10 0
BBX 8 16 1 0
BITMAP
00060C01060C0200
0080FF1470FF2400
004A940C41941500
0204040404040401
6CFFFFFFFFFFFF0C
265858FEBF585805
000000FC9C000000
000000FC9C000000
000000FC9C000000
000000FC9C000000
000000FC9C000000
000000FC9C000000
000000FC9C000000
000000FC9C000000
296060FEC2606005
6BFCFCFCFCFCFC0C
ENDCHAR
STARTCHAR Eth
ENCODING -1
SWIDTH 602 0
DWIDTH 10 0
BBX 9 13 0 0
BITMAP
000404020000000000
00F4FFFDE8AE3A0000
00F4C45B75CDFD5600
00F4A4000004BFED0A
00F4A400000053FF50
00F4A400000024FF80
DAFFF5E09E0011FF94
44F8C150390011FF95
00F4A400000024FF80
00F4A400000054FF51
00F4A4000005C1ED0B
00F4C15977CFFD5700
00F1FCFBE9B03B0000
ENDCHAR
STARTCHAR Ntilde
ENCODING -1
SWIDTH 602 0
DWIDTH 10 0
BBX 8 16 1 0
BITMAP
0001210700220A00
008AE3E47AE91F00
007E192A87530000
0404010000000403
E8FF4C000000F88C
E8FFB2000000F88C
E8D8FD1C0000F88C
E89DD77E0000F88C
E89C71E20300F88C
E89C13F84B00F88C
E89C00A4B100F88C
E89C003EFD1BF88C
E89C0001D87DF88C
E89C000072E1FA8C
E89C000014F9FF8C
E59A000000A4FC8A
ENDCHAR
STARTCHAR Ograve
ENCODING -1
SWIDTH 602 0
DWIDTH 10 0
BBX 9 16 0 0
BITMAP
000001180B00000000
0000008FCC06000000
00000004B78A000000
000000000408000000
00003BCAFDF4A51300
0023F5C44D64EFC201
0093FA16000068FF3D
00D9C70000001DFF81
03FCA600000002FBA5
0EFF9A00000000EFB5
0BFF9A00000000EFB5
02FBA700000002FBA5
00D6C90000001EFF80
008EFB19000069FF3B
001EF3C9536AF1BE01
000038C4F7ED9E1100
ENDCHAR
STARTCHAR Oacute
ENCODING -1
SWIDTH 602 0
DWIDTH 10 0
BBX 9 16 0 0
BITMAP
000000000013100000
0000000034F43C0000
0000000DDA5F000000
000000030901000000
00003BCAFDF4A51300
0023F5C44D64EFC201
0093FA16000068FF3D
00D9C70000001DFF81
03FCA600000002FBA5
0EFF9A00000000EFB5
0BFF9A00000000EFB5
02FBA700000002FBA5
00D6C90000001EFF80
008EFB19000069FF3B
001EF3C9536AF1BE01
000038C4F7ED9E1100
ENDCHAR
STARTCHAR Ocircumflex
ENCODING -1
SWIDTH 602 0
DWIDTH 10 0
BBX 9 16 0 0
BITMAP
000000011B11000000
00000064DFE71D0000
000031DC1E61C50600
000005050201080200
00003BCAFDF4A51300
0023F5C44D64EFC201
0093FA16000068FF3D
00D9C70000001DFF81
03FCA600000002FBA5
0EFF9A00000000EFB5
0BFF9A00000000EFB5
02FBA700000002FBA5
00D6C90000001EFF80
008EFB19000069FF3B
001EF3C9536AF1BE01
000038C4F7ED9E1100
ENDCHAR
STARTCHAR Otilde
ENCODING -1
SWIDTH 602 0
DWIDTH 10 0
BBX 9 15 0 0
BITMAP
000049EBCE54C24C00
0000864744B59C0600
000000000201000000
00003BCAFDF4A51300
0023F5C44D64EFC201
0093FA16000068FF3D
00D9C70000001DFF81
03FCA600000002FBA5
0EFF9A00000000EFB5
0BFF9A00000000EFB5
02FBA700000002FBA5
00D6C90000001EFF80
008EFB19000069FF3B
001EF3C9536AF1BE01
000038C4F7ED9E1100
ENDCHAR
STARTCHAR Odieresis
ENCODING -1
SWIDTH 602 0
DWIDTH 10 0
BBX 9 15 0 0
BITMAP
00006EDC1261DC1F00
000064C81058C81D00
000000000201000000
00003BCAFDF4A51300
0023F5C44D64EFC201
0093FA16000068FF3D
00D9C70000001DFF81
03FCA600000002FBA5
0EFF9A00000000EFB5
0BFF9A00000000EFB5
02FBA700000002FBA5
00D6C90000001EFF80
008EFB19000069FF3B
001EF3C9536AF1BE01
000038C4F7ED9E1100
ENDCHAR
STARTCHAR multiply
ENCODING -1
SWIDTH 602 0
DWIDTH 10 0
BBX 8 8 1 1
BITMAP
587C0000000FA91C
5FFE76000EC7E11F
0067FF78C4E62400
000074FFF0280000
0007B7F5FF610000
06B2EF307EFE5A00
91F236000185FD35
1F39000000015602
ENDCHAR
STARTCHAR Oslash
ENCODING -1
SWIDTH 602 0
DWIDTH 10 0
BBX 10 14 0 -1
BITMAP
00000000020100001F01
00003AC9FDF5A223E427
0022F4C64D62EEF67B00
0092FC1900008FFF3C00
00D6CF000026EEFF8000
01FAAE0005CB63FCA300
0AFFA00084AD01F3B100
0BFF9C3CE21300F4B100
02FCAEDD450004FEA000
00DEFF8F000023FF7B00
00A8FE16000071FF3600
1AE6FAC75A73F4B80100
AD7743CAF9EC9A0E0000
1C030000000000000000
ENDCHAR
STARTCHAR Ugrave
ENCODING -1
SWIDTH 602 0
DWIDTH 10 0
BBX 8 16 1 0
BITMAP
0002461F00000000
000075DA0C000000
000001947B000000
0403000000010402
E7B00000002CFF68
E5B00000002CFF68
E3B00000002CFF68
E1B00000002CFF68
DFB00000002CFF68
DCB00000002CFF68
DAB00000002CFF68
D8B00000002CFF67
CFB20000002FFF5E
B0D201000052FF3F
51FFA5566DE8D805
005BD1F9EEA71B00
ENDCHAR
STARTCHAR Uacute
ENCODING -1
SWIDTH 602 0
DWIDTH 10 0
BBX 8 16 1 0
BITMAP
0000000141270000
0000005EE51B0000
000015C932000000
0403000000010402
E7B00000002CFF68
E5B00000002CFF68
E3B00000002CFF68
E1B00000002CFF68
DFB00000002CFF68
DCB00000002CFF68
DAB00000002CFF68
D8B00000002CFF67
CFB20000002FFF5E
B0D201000052FF3F
51FFA5566DE8D805
005BD1F9EEA71B00
ENDCHAR
STARTCHAR Ucircumflex
ENCODING -1
SWIDTH 602 0
DWIDTH 10 0
BBX 8 16 1 0
BITMAP
0000074C2F000000
000096BCE72A0000
0041B00846AF0400
0403000000010402
E7B00000002CFF68
E5B00000002CFF68
E3B00000002CFF68
E1B00000002CFF68
DFB00000002CFF68
DCB00000002CFF68
DAB00000002CFF68
D8B00000002CFF67
CFB20000002FFF5E
B0D201000052FF3F
51FFA5566DE8D805
005BD1F9EEA71B00
ENDCHAR
STARTCHAR Udieresis
ENCODING -1
SWIDTH 602 0
DWIDTH 10 0
BBX 8 16 1 0
BITMAP
00070C01060C0100
0090FF0880FF1400
005494054A940C00
0403000000010402
E7B00000002CFF68
E5B00000002CFF68
E3B00000002CFF68
E1B00000002CFF68
DFB00000002CFF68
DCB00000002CFF68
DAB00000002CFF68
D8B00000002CFF67
CFB20000002FFF5E
B0D201000052FF3F
51FFA5566DE8D805
005BD1F9EEA71B00
ENDCHAR
STARTCHAR Yacute
ENCODING -1
SWIDTH 602 0
DWIDTH 10 0
BBX 10 16 0 0
BITMAP
00000000003E2B000000
0000000051EB22000000
0000000FC53D00000000
03040000000000020402
6AFF3F00000000A0F51A
05D7C80100002CFE7D00
004AFF520000B3E30A00
0001BBD7043CFF5B0000
00002EFD65C5CA020000
0000009AF6FF3B000000
00000018FFB600000000
00000000FC9C00000000
00000000FC9C00000000
00000000FC9C00000000
00000000FC9C00000000
00000000F99A00000000
ENDCHAR
STARTCHAR Thorn
ENCODING -1
SWIDTH 602 0
DWIDTH 10 0
BBX 9 13 1 0
BITMAP
020401000000000000
6CFF28000000000000
6CFF28000000000000
6CFFDFD8D4B7620200
6CFF94818BD3FF8700
6CFF28000006D4F303
6CFF2800000099FF15
6CFF28000001C4FB07
6CFF6C5059A9FFA700
6CFFFFFFFFE5910D00
6CFF2C040200000000
6CFF28000000000000
69F827000000000000
ENDCHAR
STARTCHAR germandbls
ENCODING -1
SWIDTH 602 0
DWIDTH 10 0
BBX 8 13 1 0
BITMAP
0008567C6F230000
0ACFF8C0DAF94700
62FF3E0002B1CA00
8BF6010023AFFB01
88F0004CF16C1501
88F000D094000000
88F000DDB1010000
88F00066FFB91D00
88F0000049E0EC2E
88F000000011D7BE
88F00000000093E8
88F032371035E2B1
86ED5CEDFCEBA214
ENDCHAR
STARTCHAR agrave
ENCODING -1
SWIDTH 602 0
DWIDTH 10 0
BBX 8 14 1 0
BITMAP
0024270000000000
0043F93E00000000
000069E312000000
0000008A86000000
0000000000000000
1BA1DEF9ECAA1E00
3FB5644155D2DB05
01000000003EFF34
001967888C9DFF49
41F5D69D8FA1FF4C
C7BD03000039FF4D
E48B0000007CFF4E
A9E2300E59ECFF4F
13AAF3F6BF52FC4F
ENDCHAR
STARTCHAR aacute
ENCODING -1
SWIDTH 602 0
DWIDTH 10 0
BBX 8 14 1 0
BITMAP
0000000008301200
0000000098D40E00
00000051EB210000
00000FC53C000000
0000000000000000
1BA1DEF9ECAA1E00
3FB5644155D2DB05
01000000003EFF34
001967888C9DFF49
41F5D69D8FA1FF4C
C7BD03000039FF4D
E48B0000007CFF4E
A9E2300E59ECFF4F
13AAF3F6BF52FC4F
ENDCHAR
STARTCHAR acircumflex
ENCODING -1
SWIDTH 602 0
DWIDTH 10 0
BBX 8 14 1 0
BITMAP
0000002716000000
000034FACF040000
0004CF60BB760000
0058990119C51400
0000000000000000
1BA1DEF9ECAA1E00
3FB5644155D2DB05
01000000003EFF34
001967888C9DFF49
41F5D69D8FA1FF4C
C7BD03000039FF4D
E48B0000007CFF4E
A9E2300E59ECFF4F
13AAF3F6BF52FC4F
ENDCHAR
STARTCHAR atilde
ENCODING -1
SWIDTH 602 0
DWIDTH 10 0
BBX 8 13 1 0
BITMAP
0025BD8C04854600
009D89AFC1EA2400
00581E0460420000
0000000000000000
1BA1DEF9ECAA1E00
3FB5644155D2DB05
01000000003EFF34
001967888C9DFF49
41F5D69D8FA1FF4C
C7BD03000039FF4D
E48B0000007CFF4E
A9E2300E59ECFF4F
13AAF3F6BF52FC4F
ENDCHAR
STARTCHAR adieresis
ENCODING -1
SWIDTH 602 0
DWIDTH 10 0
BBX 8 13 1 0
BITMAP
0040800A38801200
0080FF1470FF2400
001020030E200500
0000000000000000
1BA1DEF9ECAA1E00
3FB5644155D2DB05
01000000003EFF34
001967888C9DFF49
41F5D69D8FA1FF4C
C7BD03000039FF4D
E48B0000007CFF4E
A9E2300E59ECFF4F
13AAF3F6BF52FC4F
ENDCHAR
STARTCHAR aring
ENCODING -1
SWIDTH 602 0
DWIDTH 10 0
BBX 8 15 1 0
BITMAP
0000156954030000
000BDD9FC5920000
0045B9000FF00000
0029E32659D10000
00006EE2CD320000
0000000000000000
1BA1DEF9ECAA1E00
3FB5644155D2DB05
01000000003EFF34
001967888C9DFF49
41F5D69D8FA1FF4C
C7BD03000039FF4D
E48B0000007CFF4E
A9E2300E59ECFF4F
13AAF3F6BF52FC4F
ENDCHAR
STARTCHAR ae
ENCODING -1
SWIDTH 602 0
DWIDTH 10 0
BBX 10 9 0 0
BITMAP
12B7F3ED7999F3E96800
1C813D69FEEE497BFB13
00000000C6A50003F846
0001273CC6AE3C3CED5C
16CEFBE1F7EFDCDCDC53
86DB1100C18500000000
A5A90000D39E00000000
7DEC4857F7F353388224
0EB0F6E7577DEDF7B611
ENDCHAR
STARTCHAR ccedilla
ENCODING -1
SWIDTH 602 0
DWIDTH 10 0
BBX 8 13 1 -4
BITMAP
000167CFF6EFB020
0086FE8B41479B4B
1AFC860000000004
58FF2B0000000000
6BFF160000000000
58FF2D0000000000
1AFC8A0000000003
0087FE8E4449994A
000168D1FAF2B321
0000000051AD0000
000002010AFE1900
000014E9EAD60700
0000001321030000
ENDCHAR
STARTCHAR egrave
ENCODING -1
SWIDTH 602 0
DWIDTH 10 0
BBX 9 14 0 0
BITMAP
00001E2C0000000000
00002FF45700000000
0000004FEE20000000
00000000729D010000
000000000000000000
00002AB1F0F5B92A00
0027F1BE4742B6EA14
00A9E30900000AF175
00EFB945464647D8A6
03FFEAD4D4D4D4D496
01F08D000000000000
00AEDA070000000001
002AF2BF4E3759AB59
00002BAEEDFBE1A527
ENDCHAR
STARTCHAR eacute
ENCODING -1
SWIDTH 602 0
DWIDTH 10 0
BBX 9 14 0 0
BITMAP
000000000003301800
00000000007CE41900
0000000039F1320000
00000006B753000000
000000000000000000
00002AB1F0F5B92A00
0027F1BE4742B6EA14
00A9E30900000AF175
00EFB945464647D8A6
03FFEAD4D4D4D4D496
01F08D000000000000
00AEDA070000000001
002AF2BF4E3759AB59
00002BAEEDFBE1A527
ENDCHAR
STARTCHAR ecircumflex
ENCODING -1
SWIDTH 602 0
DWIDTH 10 0
BBX 9 14 0 0
BITMAP
00000000221B000000
00000020F2E30D0000
000001B77AA1920000
000041AF030DC12400
000000000000000000
00002AB1F0F5B92A00
0027F1BE4742B6EA14
00A9E30900000AF175
00EFB945464647D8A6
03FFEAD4D4D4D4D496
01F08D000000000000
00AEDA070000000001
002AF2BF4E3759AB59
00002BAEEDFBE1A527
ENDCHAR
STARTCHAR edieresis
ENCODING -1
SWIDTH 602 0
DWIDTH 10 0
BBX 9 13 0 0
BITMAP
00003280182A802000
000064FF3054FF4000
00000D20060B200800
000000000000000000
00002AB1F0F5B92A00
0027F1BE4742B6EA14
00A9E30900000AF175
00EFB945464647D8A6
03FFEAD4D4D4D4D496
01F08D000000000000
00AEDA070000000001
002AF2BF4E3759AB59
00002BAEEDFBE1A527
ENDCHAR
STARTCHAR igrave
ENCODING -1
SWIDTH 602 0
DWIDTH 10 0
BBX 8 14 1 0
BITMAP
0024270000000000
0043F93E00000000
000069E312000000
0000008A86000000
0000000000000000
00FCFCFCAE000000
002828CAB0000000
000000C0B0000000
000000C0B0000000
000000C0B0000000
000000C0B0000000
000000C0B0000000
192828CABD282816
9AFCFCFCFCFCFC86
ENDCHAR
STARTCHAR iacute
ENCODING -1
SWIDTH 602 0
DWIDTH 10 0
BBX 8 14 1 0
BITMAP
0000000008301200
0000000098D40E00
00000051EB210000
00000FC53C000000
0000000000000000
00FCFCFCAE000000
002828CAB0000000
000000C0B0000000
000000C0B0000000
000000C0B0000000
000000C0B0000000
000000C0B0000000
192828CABD282816
9AFCFCFCFCFCFC86
ENDCHAR
STARTCHAR icircumflex
ENCODING -1
SWIDTH 602 0
DWIDTH 10 0
BBX 8 14 1 0
BITMAP
0000002716000000
000034FACF040000
0004CF60BB760000
0058990119C51400
0000000000000000
00FCFCFCAE000000
002828CAB0000000
000000C0B0000000
000000C0B0000000
000000C0B0000000
000000C0B0000000
000000C0B0000000
192828CABD282816
9AFCFCFCFCFCFC86
ENDCHAR
STARTCHAR idieresis
ENCODING -1
SWIDTH 602 0
DWIDTH 10 0
BBX 8 13 1 0
BITMAP
0040800A38801200
0080FF1470FF2400
001020030E200500
0000000000000000
00FCFCFCAE000000
002828CAB0000000
000000C0B0000000
000000C0B0000000
000000C0B0000000
000000C0B0000000
000000C0B0000000
192828CABD282816
9AFCFCFCFCFCFC86
ENDCHAR
STARTCHAR eth
ENCODING -1
SWIDTH 602 0
DWIDTH 10 0
BBX 8 13 1 0
BITMAP
0039842400010600
0006BADB86D05900
0580D3EAE6140000
01550F23EEA00000
0028A8DAF4FF5100
1EEDD0605CD2DB03
91F41400004FFF3F
CDB60000000EFF79
DEA200000000F78E
CFB40000000AFF80
98F00F000054FF49
28F7C14F64EBCD03
003DC5F7EFA41600
ENDCHAR
STARTCHAR ntilde
ENCODING -1
SWIDTH 602 0
DWIDTH 10 0
BBX 8 13 1 0
BITMAP
0025BD8C04854600
009D89AFC1EA2400
00581E0460420000
0000000000000000
73F948D3F9D63E00
74FFC23129C7E303
74FF35000054FF27
74FF0300003DFF38
74FC0000003CFF38
74FC0000003CFF38
74FC0000003CFF38
74FC0000003CFF38
73F90000003CFC38
ENDCHAR
STARTCHAR ograve
ENCODING -1
SWIDTH 602 0
DWIDTH 10 0
BBX 8 14 1 0
BITMAP
0024270000000000
0043F93E00000000
000069E312000000
0000008A86000000
0000000000000000
0043C7F6EDA41700
32FBB13F55E3CF04
A5EB0900004BFF4A
DCAF00000009FF7F
EA9E00000000F78E
DAAF00000009FF80
A3EA0800004BFF4B
32FBB03E54E2D204
0047CAF8EEA71900
ENDCHAR
STARTCHAR oacute
ENCODING -1
SWIDTH 602 0
DWIDTH 10 0
BBX 8 14 1 0
BITMAP
0000000008301200
0000000098D40E00
00000051EB210000
00000FC53C000000
0000000000000000
0043C7F6EDA41700
32FBB13F55E3CF04
A5EB0900004BFF4A
DCAF00000009FF7F
EA9E00000000F78E
DAAF00000009FF80
A3EA0800004BFF4B
32FBB03E54E2D204
0047CAF8EEA71900
ENDCHAR
STARTCHAR ocircumflex
ENCODING -1
SWIDTH 602 0
DWIDTH 10 0
BBX 8 14 1 0
BITMAP
0000002716000000
000034FACF040000
0004CF60BB760000
0058990119C51400
0000000000000000
0043C7F6EDA41700
32FBB13F55E3CF04
A5EB0900004BFF4A
DCAF00000009FF7F
EA9E00000000F78E
DAAF00000009FF80
A3EA0800004BFF4B
32FBB03E54E2D204
0047CAF8EEA71900
ENDCHAR
STARTCHAR otilde
ENCODING -1
SWIDTH 602 0
DWIDTH 10 0
BBX 8 13 1 0
BITMAP
0025BD8C04854600
009D89AFC1EA2400
00581E0460420000
0000000000000000
0043C7F6EDA41700
32FBB13F55E3CF04
A5EB0900004BFF4A
DCAF00000009FF7F
EA9E00000000F78E
DAAF00000009FF80
A3EA0800004BFF4B
32FBB03E54E2D204
0047CAF8EEA71900
ENDCHAR
STARTCHAR odieresis
ENCODING -1
SWIDTH 602 0
DWIDTH 10 0
BBX 8 13 1 0
BITMAP
0040800A38801200
0080FF1470FF2400
001020030E200500
0000000000000000
0043C7F6EDA41700
32FBB13F55E3CF04
A5EB0900004BFF4A
DCAF00000009FF7F
EA9E00000000F78E
DAAF00000009FF80
A3EA0800004BFF4B
32FBB03E54E2D204
0047CAF8EEA71900
ENDCHAR
STARTCHAR divide
ENCODING -1
SWIDTH 602 0
DWIDTH 10 0
BBX 9 8 0 1
BITMAP
00000024FCC5000000
00000024FFC8000000
000000000000000000
39B4B4B4B4B4B4B4AC
36ACACACACACACACA4
000000020807000000
00000024FFC8000000
00000022F0BC000000
ENDCHAR
STARTCHAR oslash
ENCODING -1
SWIDTH 602 0
DWIDTH 10 0
BBX 10 11 0 -1
BITMAP
00000000000000004801
000040C6F6EFA77DCA08
002FFAB03F52E3FC1B00
00A0E908002BECFF4A00
00D4AC0015DB51FF7D00
00E49E07C46E00F78A00
00D7B4A397010AFF7C00
00A6FDBC05004EFF4700
007FFFB5455CE6CF0300
44DF5ACBF9EEA6180000
222D0000000000000000
ENDCHAR
STARTCHAR ugrave
ENCODING -1
SWIDTH 602 0
DWIDTH 10 0
BBX 8 14 1 0
BITMAP
0024270000000000
0043F93E00000000
000069E312000000
0000008A86000000
0000000000000000
77F500000043FC30
78F800000044FF30
78F800000044FF30
78F800000044FF30
78F800000044FF30
77F90000004BFF30
67FF0E00007AFF30
27FE901B46E3FF30
006CE9F7B963FC30
ENDCHAR
STARTCHAR uacute
ENCODING -1
SWIDTH 602 0
DWIDTH 10 0
BBX 8 14 1 0
BITMAP
0000000008301200
0000000098D40E00
00000051EB210000
00000FC53C000000
0000000000000000
77F500000043FC30
78F800000044FF30
78F800000044FF30
78F800000044FF30
78F800000044FF30
77F90000004BFF30
67FF0E00007AFF30
27FE901B46E3FF30
006CE9F7B963FC30
ENDCHAR
STARTCHAR ucircumflex
ENCODING -1
SWIDTH 602 0
DWIDTH 10 0
BBX 8 14 1 0
BITMAP
0000002716000000
000034FACF040000
0004CF60BB760000
0058990119C51400
0000000000000000
77F500000043FC30
78F800000044FF30
78F800000044FF30
78F800000044FF30
78F800000044FF30
77F90000004BFF30
67FF0E00007AFF30
27FE901B46E3FF30
006CE9F7B963FC30
ENDCHAR
STARTCHAR udieresis
ENCODING -1
SWIDTH 602 0
DWIDTH 10 0
BBX 8 13 1 0
BITMAP
0040800A38801200
0080FF1470FF2400
001020030E200500
0000000000000000
77F500000043FC30
78F800000044FF30
78F800000044FF30
78F800000044FF30
78F800000044FF30
77F90000004BFF30
67FF0E00007AFF30
27FE901B46E3FF30
006CE9F7B963FC30
ENDCHAR
STARTCHAR yacute
ENCODING -1
SWIDTH 602 0
DWIDTH 10 0
BBX 10 18 0 -4
BITMAP
00000000000830120000
000000000098D40E0000
0000000051EB21000000
0000000FC53C00000000
00000000000000000000
0CF18400000000B0D101
009FE202000014FB7400
003DFF4200006BFC1800
0001DBA10000C8B20000
000079F40C25FF510000
00001BFD5E81EB060000
000000B5BDDD90000000
00000053FFFF30000000
00000006EDD100000000
00000012F87100000000
00000084F91500000000
0072D9FF820000000000
003C6C42010000000000
ENDCHAR
STARTCHAR thorn
ENCODING -1
SWIDTH 602 0
DWIDTH 10 0
BBX 8 17 1 -4
BITMAP
305A000000000000
80F0000000000000
80F0000000000000
80F0000000000000
80F05CE1F7BD2700
80FCDC5046CDE10A
80FF49000028FF5D
80FF0A000000EA92
80F900000000DAA2
80FF0A000000E994
80FF48000027FF5F
80FCDC4E45CCE10B
80F060E3F8BF2800
80F0000000000000
80F0000000000000
80F0000000000000
3666000000000000
ENDCHAR
STARTCHAR ydieresis
ENCODING -1
SWIDTH 602 0
DWIDTH 10 0
BBX 10 17 0 -4
BITMAP
000040800A3880120000
000080FF1470FF240000
00001020030E20050000
00000000000000000000
0CF18400000000B0D101
009FE202000014FB7400
003DFF4200006BFC1800
0001DBA10000C8B20000
000079F40C25FF510000
00001BFD5E81EB060000
000000B5BDDD90000000
00000053FFFF30000000
00000006EDD100000000
00000012F87100000000
00000084F91500000000
0072D9FF820000000000
003C6C42010000000000
ENDCHAR
STARTCHAR Cacute
ENCODING -1
SWIDTH 602 0
DWIDTH 10 0
BBX 8 16 1 0
BITMAP
0000000002100700
0000000075DC1300
00000036EA280000
0000000A0C010000
00026AD6FEF9C432
0090FF934954A763
35FF830000000008
92FF160000000000
C7E1000000000000
DDCC000000000000
DDCC000000000000
C6E2000000000000
92FF190000000000
35FF8A000000000C
0092FF9D545EB364
000269D2F8F2BD2F
ENDCHAR
STARTCHAR cacute
ENCODING -1
SWIDTH 602 0
DWIDTH 10 0
BBX 8 14 1 0
BITMAP
0000000000173004
000000000BD99500
000000009DBC0500
0000003CC3110000
0000000000000000
000167CFF6EFB120
0086FE8B41479B4B
1AFC860000000004
58FF2B0000000000
6BFF160000000000
58FF2D0000000000
1AFC8A0000000003
0087FE8E4449994A
000168D1F8F1B321
ENDCHAR
STARTCHAR Ccaron
ENCODING -1
SWIDTH 602 0
DWIDTH 10 0
BBX 8 16 1 0
BITMAP
0000110600051200
00006EB90AB47500
000001A8E5AF0100
0000000412050000
00026AD6FEF9C432
0090FF934954A763
35FF830000000008
92FF160000000000
C7E1000000000000
DDCC000000000000
DDCC000000000000
C6E2000000000000
92FF190000000000
35FF8A000000000C
0092FF9D545EB364
000269D2F8F2BD2F
ENDCHAR
STARTCHAR ccaron
ENCODING -1
SWIDTH 602 0
DWIDTH 10 0
BBX 8 14 1 0
BITMAP
00002C0900072E01
0000899A00909400
00000ADD92E30E00
00000044D84E0000
0000000000000000
000167CFF6EFB120
0086FE8B41479B4B
1AFC860000000004
58FF2B0000000000
6BFF160000000000
58FF2D0000000000
1AFC8A0000000003
0087FE8E4449994A
000168D1F8F1B321
ENDCHAR
STARTCHAR dcroat
ENCODING -1
SWIDTH 602 0
DWIDTH 10 0
BBX 10 13 0 0
BITMAP
00000000000019500A00
00000000141C64FF3912
000000009BDCE8FFE187
00000000000050FF2000
00005EDBF8C373FF2000
004AFF8C3A7EF8FF2000
00BEC4010000AEFF2000
01F5840000006BFF2000
03FF750000005BFF2000
00F1840000006BFF2000
00BBC4010000ADFF2000
0048FF8A397CF7FF2000
000062DFF9C15FC41900
ENDCHAR
STARTCHAR Gbreve
ENCODING -1
SWIDTH 602 0
DWIDTH 10 0
BBX 9 16 0 0
BITMAP
000010090000110600
00007FB74055EB1E00
00000C99D4C75B0000
000000000002000000
00000F91E7FFEC9A11
000ACFEE724564D33C
007CFF3C0000000713
00DACC000000000000
0FFF98000000000000
25FF8400001F343421
25FF83000094FFFFA0
0FFF9700000C14E3A0
00DACB00000000E0A0
007DFF3E000000E0A0
000BD0F07C5379F89C
00001090E3FBE49212
ENDCHAR
STARTCHAR gbreve
ENCODING -1
SWIDTH 602 0
DWIDTH 10 0
BBX 8 17 1 -4
BITMAP
00866D0007CF2600
0030F2CCE3BB0100
00001C5748050000
0000000000000000
005EDCF8CC7AFC28
49FF741043F0FF28
BECA0000008BFF28
F39200000056FF28
FF860000004DFF28
ED9900000061FF28
B4DC040000A3FF28
3FFEA54378EEFF28
0058DDF9BF69FF24
000000000062FF0E
042C000005BFC800
08FFD8B7E1EF3400
01386A7B62140000
ENDCHAR
STARTCHAR Idotaccent
ENCODING -1
SWIDTH 602 0
DWIDTH 10 0
BBX 8 16 1 0
BITMAP
000000100A000000
000000FCA0000000
000000925D000000
0204040404040401
6CFFFFFFFFFFFF0C
265858FEBF585805
000000FC9C000000
000000FC9C000000
000000FC9C000000
000000FC9C000000
000000FC9C000000
000000FC9C000000
000000FC9C000000
000000FC9C000000
296060FEC2606005
6BFCFCFCFCFCFC0C
ENDCHAR
STARTCHAR dotlessi
ENCODING -1
SWIDTH 602 0
DWIDTH 10 0
BBX 8 9 1 0
BITMAP
00FCFCFCAE000000
002828CAB0000000
000000C0B0000000
000000C0B0000000
000000C0B0000000
000000C0B0000000
000000C0B0000000
192828CABD282816
9AFCFCFCFCFCFC86
ENDCHAR
STARTCHAR Lslash
ENCODING -1
SWIDTH 602 0
DWIDTH 10 0
BBX 10 13 -1 0
BITMAP
00000204020000000000
000050FF440000000000
000050FF440000000000
000050FF440000000000
000050FF441196110000
000050FF81E2AB100000
000050FFF56201000000
001FC4FF510000000000
02D5C3FF440000000000
001150FF440000000000
000050FF440000000000
000050FF8B6060606057
00004FFCFCFCFCFCFCE5
ENDCHAR
STARTCHAR lslash
ENCODING -1
SWIDTH 602 0
DWIDTH 10 0
BBX 9 13 0 0
BITMAP
00759C9C9C00000000
00698CBFFF00000000
00000070FF00000000
00000070FF001D7000
00000070FF54ED9302
00000070FFEB4D0000
000036DCFF19000000
037AF3C4FF00000000
2BCF2D70FF00000000
00020070FF01000000
00000063FF16000000
00000021FCA8464406
000000005BE3FCFC14
ENDCHAR
STARTCHAR OE
ENCODING -1
SWIDTH 602 0
DWIDTH 10 0
BBX 10 13 0 0
BITMAP
00000000020404040402
000683E0FFFFFFFFFF6C
0092FF995DF3C35C5C27
0DF89B0000ECA0000000
3FFF500000ECA0000000
5DFF310000ECA9181805
6AFF260000ECFFFFFF30
68FF260000ECBB48480E
5BFF320000ECA0000000
3BFF510000ECA0000000
09F69E0000ECA0000000
0088FFA067F4C35C5C30
00047CDAF9FCFCFCFC7F
ENDCHAR
STARTCHAR oe
ENCODING -1
SWIDTH 602 0
DWIDTH 10 0
BBX 10 10 0 -1
BITMAP
0393F1EC7686F0EB6F00
60F1536FFFF65277FD1B
ADA30000D9B40001ED52
D0840000BCA81414DC6A
DB7D0000B3FFFFFFFF70
D67F0000B3AC201F1E0D
BF910000C3AB00000000
8ACE030FF2E50B00111B
23F2DFE4D7E0E3C1F33C
00206E670F1166794001
ENDCHAR
STARTCHAR Scedilla
ENCODING -1
SWIDTH 602 0
DWIDTH 10 0
BBX 8 17 1 -4
BITMAP
0000000201000000
0052CEFCFCD68500
51FFAA514E85D100
C3C8010000000800
DEAF000000000000
AEF9650E00000000
20D6FFFDCD7C0F00
0004488BCDFFDC12
000000000057FF75
000000000001F399
1E000000001EFE81
B8BE6E526DDBF524
51B6EAFDEFB43300
00000026D1070000
00000301D8490000
0000D3E2EC210000
00000D2207000000
ENDCHAR
STARTCHAR scedilla
ENCODING -1
SWIDTH 602 0
DWIDTH 10 0
BBX 8 13 1 -4
BITMAP
003FC5F5F7D25E00
14F5B1423B6B7400
41FF380000000000
1BFAC25620010000
0046C1F7FFDF4600
0000000440D5EB02
00000000006FFF0B
42A4573754DEC500
26B3E7FDEDA31800
00000026D1070000
00000301D8490000
0000D3E2EC210000
00000D2207000000
ENDCHAR
STARTCHAR Scaron
ENCODING -1
SWIDTH 602 0
DWIDTH 10 0
BBX 8 16 1 0
BITMAP
000B0C0000130400
002BDE246CBF0400
00005CE7E5180000
000000110B000000
0052CEFCFCD68500
51FFAA514E85D100
C3C8010000000800
DEAF000000000000
AEF9650E00000000
20D6FFFDCD7C0F00
0004488BCDFFDC12
000000000057FF75
000000000001F399
1E000000001EFE81
B8BE6E526DDBF524
51B6EAFCEDB43300
ENDCHAR
STARTCHAR scaron
ENCODING -1
SWIDTH 602 0
DWIDTH 10 0
BBX 8 14 1 0
BITMAP
001E170000290D00
003FD90C46D80800
00009BA9E63F0000
000011CC8E000000
0000000000000000
003FC5F5F7D25E00
14F5B1423B6B7400
41FF380000000000
1BFAC25620010000
0046C1F7FFDF4600
0000000440D5EB02
00000000006FFF0B
42A4573754DEC500
26B3E7FBEBA31800
ENDCHAR
STARTCHAR Ydieresis
ENCODING -1
SWIDTH 602 0
DWIDTH 10 0
BBX 10 16 0 0
BITMAP
0000060C01060C020000
000080FF1470FF240000
00004A940C4194150000
03040000000000020402
6AFF3F00000000A0F51A
05D7C80100002CFE7D00
004AFF520000B3E30A00
0001BBD7043CFF5B0000
00002EFD65C5CA020000
0000009AF6FF3B000000
00000018FFB600000000
00000000FC9C00000000
00000000FC9C00000000
00000000FC9C00000000
00000000FC9C00000000
00000000F99A00000000
ENDCHAR
STARTCHAR Zcaron
ENCODING -1
SWIDTH 602 0
DWIDTH 10 0
BBX 9 16 1 0
BITMAP
00233300044B070000
0013DC449C97000000
000037D3B908000000
030404040404040400
9CFFFFFFFFFFFFF800
365858585866FCC600
000000000094FA2A00
0000000038FE7D0000
00000005D2D2060000
00000078FD35000000
000024F78C00000000
0001BCDD0A00000000
005DFF420000000000
14EC9A000000000000
9BFD7060606060600E
C5FCFCFCFCFCFCFC24
ENDCHAR
STARTCHAR zcaron
ENCODING -1
SWIDTH 602 0
DWIDTH 10 0
BBX 8 14 1 0
BITMAP
001E170000290D00
003FD90C46D80800
00009BA9E63F0000
000011CC8E000000
0000000000000000
38FCFCFCFCFCFC20
0B30303031C4E90F
000000006BFC4000
00000038FA740000
000016E4AC010000
0004BED80E000000
0088F42900000000
43FF8B3838383807
67FCFCFCFCFCFC20
ENDCHAR
STARTCHAR florin
ENCODING -1
SWIDTH 602 0
DWIDTH 10 0
BBX 10 17 0 -4
BITMAP
0000000000002B7B711B
000000000043FACAB75D
0000000000CDB1010002
000000000DFF59000000
0000000032FF33000000
0000000057FF10000000
00007BD4E7FFD0D04500
00003154C7CF54541C00
00000000CF9600000000
00000003F76F00000000
00000024FF4800000000
0000004FFF2100000000
0000007AF70300000000
000000ADC50000000000
0D0026F8740000000000
E3C2F2CF0B0000000000
3F6A5207000000000000
ENDCHAR
STARTCHAR circumflex
ENCODING -1
SWIDTH 602 0
DWIDTH 10 0
BBX 6 4 2 10
BITMAP
000027160000
0034FACF0400
04CF60BB7600
58990119C514
ENDCHAR
STARTCHAR caron
ENCODING -1
SWIDTH 602 0
DWIDTH 10 0
BBX 6 4 2 10
BITMAP
1E170000290D
3FD90C46D808
009BA9E63F00
0011CC8E0000
ENDCHAR
STARTCHAR breve
ENCODING -1
SWIDTH 602 0
DWIDTH 10 0
BBX 6 3 2 10
BITMAP
856D0007CF25
2EF2CCE3BB01
001C57480500
ENDCHAR
STARTCHAR dotaccent
ENCODING -1
SWIDTH 602 0
DWIDTH 10 0
BBX 2 3 4 10
BITMAP
7E50
FCA0
2417
ENDCHAR
STARTCHAR ring
ENCODING -1
SWIDTH 602 0
DWIDTH 10 0
BBX 5 5 2 10
BITMAP
0015695403
0BDD9FC592
45B9000FF0
27E32659D1
006DE2CD32
ENDCHAR
STARTCHAR ogonek
ENCODING -1
SWIDTH 602 0
DWIDTH 10 0
BBX 4 5 3 -4
BITMAP
00040100
43BE0100
A7720103
6EF8E630
00121901
ENDCHAR
STARTCHAR tilde
ENCODING -1
SWIDTH 602 0
DWIDTH 10 0
BBX 6 3 2 10
BITMAP
25BD8C048546
9C89AFC1EA24
571E04604200
ENDCHAR
STARTCHAR hungarumlaut
ENCODING -1
SWIDTH 602 0
DWIDTH 10 0
BBX 7 4 2 10
BITMAP
00002A170D3007
002AF82595BF01
00A78A22F22500
1ACA0E80710000
ENDCHAR
STARTCHAR Omega
ENCODING -1
SWIDTH 602 0
DWIDTH 10 0
BBX 10 12 0 0
BITMAP
00001585BAAF5D020000
001AE2F1A8BEFF9C0000
00A8F123000076FF4700
0FFB8A00000004E6A800
3CFF4F00000000ADDB00
4FFF3D000000009AEE00
48FF4600000000A4E600
22FF6B00000000C8C200
01D5B100000014FB7500
0056FD3000008AE50D00
2C69DDE3195AFFA26807
6BFCFCFC348EFCFCFC10
ENDCHAR
STARTCHAR pi
ENCODING -1
SWIDTH 602 0
DWIDTH 10 0
BBX 10 10 0 -1
BITMAP
54E1E2E3E4E5E6E7E704
207FFF6F5454AAEF4802
0040FF28000080E80000
0040FF28000080E80000
0040FF28000080E80000
0040FF28000080E80000
0040FF28000080E80000
0040FF2800007AF60E00
003FFC28000043FFFC33
000000000000002F3F06
ENDCHAR
STARTCHAR endash
ENCODING -1
SWIDTH 602 0
DWIDTH 10 0
BBX 10 3 0 3
BITMAP
18181818181818181810
FFFFFFFFFFFFFFFFFFA4
0C0C0C0C0C0C0C0C0C08
ENDCHAR
STARTCHAR emdash
ENCODING -1
SWIDTH 602 0
DWIDTH 10 0
BBX 10 3 0 3
BITMAP
18181818181818181810
FFFFFFFFFFFFFFFFFFA4
0C0C0C0C0C0C0C0C0C08
ENDCHAR
STARTCHAR quoteleft
ENCODING -1
SWIDTH 602 0
DWIDTH 10 0
BBX 4 6 3 7
BITMAP
00037E27
005AFF1C
03D7DB00
4DFFA200
60FF9800
15382200
ENDCHAR
STARTCHAR quoteright
ENCODING -1
SWIDTH 602 0
DWIDTH 10 0
BBX 4 6 3 7
BITMAP
00518430
009CFF5C
00B4FF2E
03F1AD00
33FF2E00
14310000
ENDCHAR
STARTCHAR quotesinglbase
ENCODING -1
SWIDTH 602 0
DWIDTH 10 0
BBX 3 6 3 -3
BITMAP
097064
14FFE4
27FFBF
65FF43
A5C301
412300
ENDCHAR
STARTCHAR quotedblleft
ENCODING -1
SWIDTH 602 0
DWIDTH 10 0
BBX 7 6 1 7
BITMAP
00017A2E002E7A
004FFF2700BABB
01CFE7013AFF7B
44FFAE00ADFF42
58FFA400C0FF38
143824002A380D
ENDCHAR
STARTCHAR quotedblright
ENCODING -1
SWIDTH 602 0
DWIDTH 10 0
BBX 7 6 1 7
BITMAP
004D8434008480
0094FF6400FFF8
00ACFF3618FFC9
01EBB70057FF4B
2BFF380097CB01
123400002A1C00
ENDCHAR
STARTCHAR quotedblbase
ENCODING -1
SWIDTH 602 0
DWIDTH 10 0
BBX 7 6 1 -3
BITMAP
0041702C00706D
0094FF6400FFF8
00A7FF3F13FFD3
01E5C30151FF57
25FF430091D503
194B01003B2A00
ENDCHAR
STARTCHAR dagger
ENCODING -1
SWIDTH 602 0
DWIDTH 10 0
BBX 8 15 1 -2
BITMAP
0000000403000000
000000E084000000
000000E084000000
000000E084000000
79A4A4F5D4A4A43E
709898F3CE989839
000000E084000000
000000E084000000
000000E084000000
000000E084000000
000000E084000000
000000E084000000
000000E084000000
000000E084000000
000000854F000000
ENDCHAR
STARTCHAR daggerdbl
ENCODING -1
SWIDTH 602 0
DWIDTH 10 0
BBX 8 15 1 -2
BITMAP
0000000403000000
000000E084000000
000000E084000000
000000E084000000
79A4A4F5D4A4A43E
709898F3CE989839
000000E084000000
000000E084000000
000000E084000000
060808E188080803
BCFFFFFFFFFFFF60
273434E79E343414
000000E084000000
000000E084000000
000000854F000000
ENDCHAR
STARTCHAR bullet
ENCODING -1
SWIDTH 602 0
DWIDTH 10 0
BBX 6 6 2 3
BITMAP
001D725C0500
1CEDFFFFA800
72FFFFFFFF11
68FFFFFFFA0B
0DCEFFFF7500
000538220000
ENDCHAR
STARTCHAR ellipsis
ENCODING -1
SWIDTH 602 0
DWIDTH 10 0
BBX 9 3 0 0
BITMAP
2D7848157860007578
60FF982CFFCC00F8FF
5FFC962CFCC900F5FC
ENDCHAR
STARTCHAR perthousand
ENCODING -1
SWIDTH 602 0
DWIDTH 10 0
BBX 11 12 -1 0
BITMAP
0007677E24000000000000
00A8B788E71B0000000000
05F3060091640000000000
01E63306C04900044E5A00
004CEAF19B1A7CD69A2E00
0000044AAACF6C0F000000
0055D1A63D010000000000
00316D9B6401097EA65200
005AD562C67299AF5CDB43
00A5560034BEE01A00678B
007F9C067E9BBA7113B362
000DB3F7C11723C3EB9504
ENDCHAR
STARTCHAR guilsinglleft
ENCODING -1
SWIDTH 602 0
DWIDTH 10 0
BBX 5 8 2 1
BITMAP
0000000523
00000AB660
0011C5C712
17D3B60B00
31F9680000
0043F27801
000034EB51
0000002643
ENDCHAR
STARTCHAR guilsinglright
ENCODING -1
SWIDTH 602 0
DWIDTH 10 0
BBX 4 8 3 1
BITMAP
28000000
B6690000
40F17E01
0031E991
0009B8D1
10C1C914
AAB90C00
62060000
ENDCHAR
STARTCHAR Euro
ENCODING -1
SWIDTH 602 0
DWIDTH 10 0
BBX 9 13 0 0
BITMAP
000000000002010000
00000042C9FCF9BD20
00003DFBB04950B044
0000CBCB0300000008
0024FF690000000000
47B8FFAE90907C0000
2A90FF5F44442E0000
2099FF664C45000000
50ADFFAB8C63000000
0025FF680000000000
0001CECB030000010A
00003FFBB45056B840
00000040C3F6F2B41C
ENDCHAR
STARTCHAR trademark
ENCODING -1
SWIDTH 602 0
DWIDTH 10 0
BBX 9 6 0 7
BITMAP
040404020402000304
BCEEC750EBAB01C7CC
00BC2800E4A176A0CC
00BC2800E421ED2DCC
00BC2800E4001918CC
00791A009300001083
ENDCHAR
STARTCHAR partialdiff
ENCODING -1
SWIDTH 602 0
DWIDTH 10 0
BBX 8 11 1 0
BITMAP
00003BC0CD6F0100
0000B0B027966800
000000000038DF01
00000000002FFF18
000B7F9B693FFF2D
01BDC80919BEFF28
40FF4C0000CDFF0D
72FF130000D2D200
6AFF020007F57200
20F8210060D30800
004CA784A5190000
ENDCHAR
STARTCHAR Delta
ENCODING -1
SWIDTH 602 0
DWIDTH 10 0
BBX 11 12 -1 0
BITMAP
000000000B785700000000
0000000058FFF30A000000
00000000B3C8FD57000000
00000013FB5CBCB1000000
00000068F70E64FA120000
000000C2AD0012FB670000
00001FFF560000B4C20000
000077F50B00005CFF1F00
0000D2A70000000EF87800
002CFF4F00000000ADD200
0086FF7068686868A5FF2D
01DCFCFCFCFCFCFCFCFC85
ENDCHAR
STARTCHAR product
ENCODING -1
SWIDTH 602 0
DWIDTH 10 0
BBX 8 17 1 -4
BITMAP
0404040404040402
D0FFFFFFFFFFFF74
D0700C0C0C0CC774
D06800000000C474
D06800000000C474
D06800000000C474
D06800000000C474
D06800000000C474
D06800000000C474
D06800000000C474
D06800000000C474
D06800000000C474
D06800000000C474
D06800000000C474
D06800000000C474
D06800000000C474
964B000000008D54
ENDCHAR
STARTCHAR summation
ENCODING -1
SWIDTH 602 0
DWIDTH 10 0
BBX 8 17 1 -4
BITMAP
0404040404040402
DBFFFFFFFFFFFF54
68DF211C1C1C1C0A
02C6780000000000
002DF22300000000
000087BA01000000
00000ADE5C000000
00000047EB130000
00000000C1840000
00000027F6290000
000000B68E000000
00004AEB10000000
0006D96500000000
0073CF0300000000
17F13D0000000000
9BDD646464646431
A1B8B8B8B8B8B85A
ENDCHAR
STARTCHAR minus
ENCODING -1
SWIDTH 602 0
DWIDTH 10 0
BBX 9 2 0 4
BITMAP
45DCDCDCDCDCDCDCD2
2A848484848484847E
ENDCHAR
STARTCHAR fraction
ENCODING -1
SWIDTH 602 0
DWIDTH 10 0
BBX 9 15 0 -2
BITMAP
000000000000010402
00000000000049FF35
000000000000BDC000
000000000032FF4C00
0000000000A6D70200
000000001FFC640000
000000008EE8080000
00000010F37B000000
00000077F513000000
000006E59300000000
000060FD2300000000
0001D3AB0000000000
0048FF380000000000
00BDC3000000000000
0C8839000000000000
ENDCHAR
STARTCHAR periodcentered
ENCODING -1
SWIDTH 602 0
DWIDTH 10 0
BBX 3 3 3 4
BITMAP
2AF4C3
2CFFCC
168066
ENDCHAR
STARTCHAR radical
ENCODING -1
SWIDTH 602 0
DWIDTH 10 0
BBX 10 15 0 -1
BITMAP
0000000000000005A52A
0000000000000044E21A
00000000000000938E00
00000000000001E14000
00000000000030EE0400
0000000000007FA30000
04447E000000CD540000
65DAFA18001DF80D0000
0401BF60006BB7000000
000075AB00B969000000
00002BF113F91C000000
000001E197CC00000000
00000097FE7E00000000
0000004DFF2F00000000
000000094F0100000000
ENDCHAR
STARTCHAR infinity
ENCODING -1
SWIDTH 602 0
DWIDTH 10 0
BBX 10 7 0 2
BITMAP
000112020000090A0000
0ABFFFD81B52F4F75C00
6BC41692B5ED482FEB10
9E63000BEF9C0000BE44
99650016F8AE0000C542
56CA33B3A7E96455EF0E
0295F2B50D3BE1EA5300
ENDCHAR
STARTCHAR integral
ENCODING -1
SWIDTH 602 0
DWIDTH 10 0
BBX 8 16 1 -3
BITMAP
0000000005576509
00000001ACB8FF7B
00000037EF15A238
00000084C7000000
000000B4B0000000
000000D5A2000000
000000EA9C000000
000000F697000000
000001FE92000000
000004FF88000000
00000BFF77000000
000016FF5D000000
000027FF36000000
0B0D45F507000000
D9D17F9900000000
9FF6AF1000000000
ENDCHAR
STARTCHAR approxequal
ENCODING -1
SWIDTH 602 0
DWIDTH 10 0
BBX 9 6 0 2
BITMAP
004AA9B47915000260
36F4B1ACEDFACCE3E4
1E1B0000085B947816
0157B2B97815000362
3DEFA19CE1FBCFE7DE
1E160000034F886C10
ENDCHAR
STARTCHAR notequal
ENCODING -1
SWIDTH 602 0
DWIDTH 10 0
BBX 9 11 0 0
BITMAP
000000000000000100
00000000000002AD4A
0000000000007BF52A
277C7C7C7C87FDC577
46E0E0E0ECFFEAE0D6
00000004C2D50B0000
12383891FF62383836
50FFFFFFFFFFFFFFF4
0E43F5A62C2C2C2C2A
01BAD50B0000000000
005129000000000000
ENDCHAR
STARTCHAR lessequal
ENCODING -1
SWIDTH 602 0
DWIDTH 10 0
BBX 9 9 0 0
BITMAP
000000000000094D94
0000000D57A9F4FFCF
0E60B2F8FBBD722600
54FFF8820F00000000
1A86D8FFE093460700
0000012B7ED1FFF3A5
0000000000002376BA
21646464646464645E
53FCFCFCFCFCFCFCED
ENDCHAR
STARTCHAR greaterequal
ENCODING -1
SWIDTH 602 0
DWIDTH 10 0
BBX 9 9 0 0
BITMAP
3A812E010000000000
3EF1FFDD8A38020000
0006428EDAFFE59340
00000000002DB9FFF4
00001863AFF5FBB963
30CAFFF8B15F110000
46AA570D0000000000
206464646464646460
4FFCFCFCFCFCFCFCF1
ENDCHAR
STARTCHAR lozenge
ENCODING -1
SWIDTH 602 0
DWIDTH 10 0
BBX 9 18 0 -4
BITMAP
000000000C00000000
000000008F2F000000
00000011E6A4000000
000000796EC91E0000
000007D40C588E0000
000062840004D21000
0002CD1700006E7800
004B9A0000000CD307
00BE28000000008362
04DA07000000005293
00826200000000BE27
0017CD01000034B000
00009B490000A83C00
000029BC0021C50100
000000B33191540000
00000040B4D1030000
00000001CD6C000000
00000000480B000000
ENDCHAR
STARTCHAR fi
ENCODING -1
SWIDTH 602 0
DWIDTH 10 0
BBX 9 13 0 0
BITMAP
0000075E838409843A
0000AFF6BDB80CFF70
0011FF67000000642C
0024FF4C0000000000
B2FDFFFEFCFCFCFC73
1A43FF66242424FD74
0024FF4C000000FC74
0024FF4C000000FC74
0024FF4C000000FC74
0024FF4C000000FC74
0024FF4C000000FC74
0024FF4C000000FC74
0024FC4B000000F973
ENDCHAR
STARTCHAR fl
ENCODING -1
SWIDTH 602 0
DWIDTH 10 0
BBX 9 13 0 0
BITMAP
0000075E838484843A
0000AFF7C1BCBEFF6F
0011FF68000004FF6F
0024FF4C000004FF6F
B2FDFFFEFC9604FF6E
1A43FF66241604FF6E
0024FF4C000004FF6E
0024FF4C000004FF6D
0024FF4C000004FF6D
0024FF4C000004FF6D
0024FF4C000004FF6C
0024FF4C000004FF6C
0024FC4B000004FC6B
ENDCHAR
STARTCHAR .notdef
ENCODING -1
SWIDTH 602 0
DWIDTH 10 0
BBX 9 15 0 -3
BITMAP
1EA0A0A0A0A0A0A082
30CE4C4C4C4C4C5BD0
30B8000000000014D0
30B8000000000014D0
30B8000000000014D0
30B8000000000014D0
30B8000000000014D0
30B8000000000014D0
30B8000000000014D0
30B8000000000014D0
30B8000000000014D0
30B8000000000014D0
30B8000000000014D0
30B8000000000014D0
2DECECECECECECECC0
ENDCHAR
STARTCHAR c6459
ENCODING -1
SWIDTH 602 0
DWIDTH 10 0
BBX 6 3 2 10
BITMAP
020401020401
80FF1470FF24
50A00D46A017
ENDCHAR
STARTCHAR c6460
ENCODING -1
SWIDTH 602 0
DWIDTH 10 0
BBX 4 3 3 10
BITMAP
00003E2B
0051EB22
0FC53D00
ENDCHAR
STARTCHAR c6461
ENCODING -1
SWIDTH 602 0
DWIDTH 10 0
BBX 6 3 2 10
BITMAP
000100000302
4FF2D960C94C
7E3F37A58B04
ENDCHAR
STARTCHAR c6468
ENCODING -1
SWIDTH 602 0
DWIDTH 10 0
BBX 4 3 2 10
BITMAP
01432400
0067E312
00008986
ENDCHAR
STARTCHAR c6470
ENCODING -1
SWIDTH 602 0
DWIDTH 10 0
BBX 6 3 2 10
BITMAP
00044B340000
0089C1E83400
35B80C3DB607
ENDCHAR
STARTCHAR c6472
ENCODING -1
SWIDTH 602 0
DWIDTH 10 0
BBX 6 3 2 10
BITMAP
233300044B07
13DC469E9700
0037D4B90800
ENDCHAR
STARTCHAR c6477
ENCODING -1
SWIDTH 602 0
DWIDTH 10 0
BBX 9 4 0 4
BITMAP
000000000000000001
000000000A4486C78C
084081C2DFA5642301
99AA69280100000000
ENDCHAR
STARTCHAR c6478
ENCODING -1
SWIDTH 602 0
DWIDTH 10 0
BBX 6 8 2 5
BITMAP
000001040100
000069FF3400
0021BCE33400
02B92DE03400
6B8200E03400
E4B7B0F6C114
303434E75E06
0000009E2500
ENDCHAR
STARTCHAR c6475
ENCODING -1
SWIDTH 602 0
DWIDTH 10 0
BBX 6 3 2 10
BITMAP
2F1D00003C13
67D8778CEC12
01619C8F2E00
ENDCHAR
STARTCHAR c6476
ENCODING -1
SWIDTH 602 0
DWIDTH 10 0
BBX 2 3 4 10
BITMAP
0403
FCA0
A267
ENDCHAR
ENDFONT
